<svg width="22" height="24" viewBox="0 0 22 24" fill="none" xmlns="http://www.w3.org/2000/svg">
<g clip-path="url(#clip0_2_781)">
<path d="M12.1843 3C12.1843 2.5875 11.8468 2.25 11.4343 2.25C11.0218 2.25 10.6843 2.5875 10.6843 3V11.25H2.43433C2.02183 11.25 1.68433 11.5875 1.68433 12C1.68433 12.4125 2.02183 12.75 2.43433 12.75H10.6843V21C10.6843 21.4125 11.0218 21.75 11.4343 21.75C11.8468 21.75 12.1843 21.4125 12.1843 21V12.75H20.4343C20.8468 12.75 21.1843 12.4125 21.1843 12C21.1843 11.5875 20.8468 11.25 20.4343 11.25H12.1843V3Z" fill="black"/>
</g>
<defs>
<clipPath id="clip0_2_781">
<rect width="21" height="24" fill="white" transform="translate(0.934326)"/>
</clipPath>
</defs>
</svg>
