<svg width="28" height="24" viewBox="0 0 28 24" fill="none" xmlns="http://www.w3.org/2000/svg">
<g clip-path="url(#clip0_2_918)">
<path d="M8.08179 3H24.5818C25.4115 3 26.0818 3.67031 26.0818 4.5V9.44062L23.3912 6.75C22.8052 6.16406 21.8537 6.16406 21.2677 6.75L14.8318 13.1906L11.3912 9.75C10.8052 9.16406 9.85366 9.16406 9.26772 9.75L6.58179 12.4406V4.5C6.58179 3.67031 7.2521 3 8.08179 3ZM27.5818 4.5C27.5818 2.84531 26.2365 1.5 24.5818 1.5H8.08179C6.4271 1.5 5.08179 2.84531 5.08179 4.5V14.25V15C5.08179 16.6547 6.4271 18 8.08179 18H11.8318H24.5818C26.2365 18 27.5818 16.6547 27.5818 15V11.25V4.5ZM22.3318 7.80938L26.0818 11.5594V15C26.0818 15.8297 25.4115 16.5 24.5818 16.5H13.6412L15.3615 14.7797L22.3318 7.80938ZM13.7724 14.25L11.5224 16.5H8.08179C7.2521 16.5 6.58179 15.8297 6.58179 15V14.5594L10.3318 10.8094L13.7724 14.25ZM2.08179 5.25C2.08179 4.8375 1.74429 4.5 1.33179 4.5C0.919287 4.5 0.581787 4.8375 0.581787 5.25V16.5C0.581787 19.8141 3.26772 22.5 6.58179 22.5H22.3318C22.7443 22.5 23.0818 22.1625 23.0818 21.75C23.0818 21.3375 22.7443 21 22.3318 21H6.58179C4.09741 21 2.08179 18.9844 2.08179 16.5V5.25ZM12.9568 7.5C13.2552 7.5 13.5413 7.38147 13.7523 7.1705C13.9633 6.95952 14.0818 6.67337 14.0818 6.375C14.0818 6.07663 13.9633 5.79048 13.7523 5.5795C13.5413 5.36853 13.2552 5.25 12.9568 5.25C12.6584 5.25 12.3723 5.36853 12.1613 5.5795C11.9503 5.79048 11.8318 6.07663 11.8318 6.375C11.8318 6.67337 11.9503 6.95952 12.1613 7.1705C12.3723 7.38147 12.6584 7.5 12.9568 7.5Z" fill="black"/>
</g>
<defs>
<clipPath id="clip0_2_918">
<rect width="27" height="24" fill="white" transform="translate(0.581787)"/>
</clipPath>
</defs>
</svg>
