<svg width="30" height="24" viewBox="0 0 30 24" fill="none" xmlns="http://www.w3.org/2000/svg">
<g clip-path="url(#clip0_2_817)">
<path d="M10.5 1.5C11.0909 1.5 11.6761 1.6164 12.2221 1.84254C12.768 2.06869 13.2641 2.40016 13.682 2.81802C14.0998 3.23588 14.4313 3.73196 14.6575 4.27792C14.8836 4.82389 15 5.40905 15 6C15 6.59095 14.8836 7.17611 14.6575 7.72208C14.4313 8.26804 14.0998 8.76412 13.682 9.18198C13.2641 9.59984 12.768 9.93131 12.2221 10.1575C11.6761 10.3836 11.0909 10.5 10.5 10.5C9.90905 10.5 9.32389 10.3836 8.77792 10.1575C8.23196 9.93131 7.73588 9.59984 7.31802 9.18198C6.90016 8.76412 6.56869 8.26804 6.34254 7.72208C6.1164 7.17611 6 6.59095 6 6C6 5.40905 6.1164 4.82389 6.34254 4.27792C6.56869 3.73196 6.90016 3.23588 7.31802 2.81802C7.73588 2.40016 8.23196 2.06869 8.77792 1.84254C9.32389 1.6164 9.90905 1.5 10.5 1.5ZM10.5 12C12.0913 12 13.6174 11.3679 14.7426 10.2426C15.8679 9.11742 16.5 7.5913 16.5 6C16.5 4.4087 15.8679 2.88258 14.7426 1.75736C13.6174 0.632141 12.0913 0 10.5 0C8.9087 0 7.38258 0.632141 6.25736 1.75736C5.13214 2.88258 4.5 4.4087 4.5 6C4.5 7.5913 5.13214 9.11742 6.25736 10.2426C7.38258 11.3679 8.9087 12 10.5 12ZM8.35781 15.75H12.6422C16.3922 15.75 19.4391 18.7641 19.5 22.5H1.5C1.55625 18.7641 4.60313 15.75 8.35781 15.75ZM8.35781 14.25C3.74063 14.25 0 17.9906 0 22.6078C0 23.3766 0.623438 24 1.39219 24H19.6078C20.3766 24 21 23.3766 21 22.6078C21 17.9906 17.2594 14.25 12.6422 14.25H8.35781ZM24 14.25C24 14.6625 24.3375 15 24.75 15C25.1625 15 25.5 14.6625 25.5 14.25V10.5H29.25C29.6625 10.5 30 10.1625 30 9.75C30 9.3375 29.6625 9 29.25 9H25.5V5.25C25.5 4.8375 25.1625 4.5 24.75 4.5C24.3375 4.5 24 4.8375 24 5.25V9H20.25C19.8375 9 19.5 9.3375 19.5 9.75C19.5 10.1625 19.8375 10.5 20.25 10.5H24V14.25Z" fill="black"/>
</g>
<defs>
<clipPath id="clip0_2_817">
<rect width="30" height="24" fill="white"/>
</clipPath>
</defs>
</svg>
