<svg width="24" height="22" viewBox="0 0 24 22" fill="none" xmlns="http://www.w3.org/2000/svg">
<g clip-path="url(#clip0_2_763)">
<path d="M4.66477 0C5.03144 0 5.33144 0.3 5.33144 0.666667V2.66667H13.3314V0.666667C13.3314 0.3 13.6314 0 13.9981 0C14.3648 0 14.6648 0.3 14.6648 0.666667V2.66667H15.9981C17.4689 2.66667 18.6648 3.8625 18.6648 5.33333V6.66667V8V8.02917C18.4439 8.00833 18.2231 8 17.9981 8C17.7731 8 17.5523 8.00833 17.3314 8.02917V8H1.33144V18.6667C1.33144 19.4042 1.92727 20 2.66477 20H12.3398C12.7564 20.5042 13.2439 20.9542 13.7814 21.3333H2.66477C1.19394 21.3333 -0.00189209 20.1375 -0.00189209 18.6667V8V6.66667V5.33333C-0.00189209 3.8625 1.19394 2.66667 2.66477 2.66667H3.99811V0.666667C3.99811 0.3 4.29811 0 4.66477 0ZM15.9981 4H2.66477C1.92727 4 1.33144 4.59583 1.33144 5.33333V6.66667H17.3314V5.33333C17.3314 4.59583 16.7356 4 15.9981 4ZM17.9981 20C19.2358 20 20.4228 19.5083 21.2979 18.6332C22.1731 17.758 22.6648 16.571 22.6648 15.3333C22.6648 14.0957 22.1731 12.9087 21.2979 12.0335C20.4228 11.1583 19.2358 10.6667 17.9981 10.6667C16.7604 10.6667 15.5734 11.1583 14.6983 12.0335C13.8231 12.9087 13.3314 14.0957 13.3314 15.3333C13.3314 16.571 13.8231 17.758 14.6983 18.6332C15.5734 19.5083 16.7604 20 17.9981 20ZM17.9981 9.33333C19.5894 9.33333 21.1155 9.96548 22.2407 11.0907C23.366 12.2159 23.9981 13.742 23.9981 15.3333C23.9981 16.9246 23.366 18.4508 22.2407 19.576C21.1155 20.7012 19.5894 21.3333 17.9981 21.3333C16.4068 21.3333 14.8807 20.7012 13.7555 19.576C12.6302 18.4508 11.9981 16.9246 11.9981 15.3333C11.9981 13.742 12.6302 12.2159 13.7555 11.0907C14.8807 9.96548 16.4068 9.33333 17.9981 9.33333ZM17.9981 12C18.3648 12 18.6648 12.3 18.6648 12.6667V14.6667H19.9981C20.3648 14.6667 20.6648 14.9667 20.6648 15.3333C20.6648 15.7 20.3648 16 19.9981 16H17.9981C17.6314 16 17.3314 15.7 17.3314 15.3333V12.6667C17.3314 12.3 17.6314 12 17.9981 12Z" fill="black"/>
</g>
<defs>
<clipPath id="clip0_2_763">
<rect width="24" height="21.3333" fill="white" transform="translate(-0.00189209)"/>
</clipPath>
</defs>
</svg>
