<svg width="25" height="24" viewBox="0 0 25 24" fill="none" xmlns="http://www.w3.org/2000/svg">
<g clip-path="url(#clip0_2_801)">
<path d="M9.89214 1.5C8.92183 1.5 8.06401 2.11875 7.75933 3.0375L7.26714 4.5H3.93433C2.27964 4.5 0.934326 5.84531 0.934326 7.5V19.5C0.934326 21.1547 2.27964 22.5 3.93433 22.5H21.9343C23.589 22.5 24.9343 21.1547 24.9343 19.5V7.5C24.9343 5.84531 23.589 4.5 21.9343 4.5H18.6015L18.114 3.0375C17.8046 2.11875 16.9468 1.5 15.9765 1.5H9.89214ZM9.17964 3.51094C9.28276 3.20625 9.5687 3 9.89214 3H15.9765C16.3 3 16.5859 3.20625 16.689 3.51094L17.3453 5.48438C17.4484 5.78906 17.7343 5.99531 18.0578 5.99531H21.9343C22.764 5.99531 23.4343 6.66562 23.4343 7.49531V19.5C23.4343 20.3297 22.764 21 21.9343 21H3.93433C3.10464 21 2.43433 20.3297 2.43433 19.5V7.5C2.43433 6.67031 3.10464 6 3.93433 6H7.81089C8.13433 6 8.42026 5.79375 8.52339 5.48906L9.17964 3.51562V3.51094ZM12.9343 18.75C13.6238 18.75 14.3065 18.6142 14.9434 18.3504C15.5804 18.0865 16.1591 17.6998 16.6466 17.2123C17.1341 16.7248 17.5209 16.146 17.7847 15.5091C18.0485 14.8721 18.1843 14.1894 18.1843 13.5C18.1843 12.8106 18.0485 12.1279 17.7847 11.4909C17.5209 10.854 17.1341 10.2752 16.6466 9.78769C16.1591 9.30018 15.5804 8.91347 14.9434 8.64963C14.3065 8.3858 13.6238 8.25 12.9343 8.25C12.2449 8.25 11.5622 8.3858 10.9252 8.64963C10.2883 8.91347 9.70952 9.30018 9.22202 9.78769C8.73451 10.2752 8.3478 10.854 8.08396 11.4909C7.82012 12.1279 7.68433 12.8106 7.68433 13.5C7.68433 14.1894 7.82012 14.8721 8.08396 15.5091C8.3478 16.146 8.73451 16.7248 9.22202 17.2123C9.70952 17.6998 10.2883 18.0865 10.9252 18.3504C11.5622 18.6142 12.2449 18.75 12.9343 18.75ZM9.18433 13.5C9.18433 12.5054 9.57941 11.5516 10.2827 10.8483C10.9859 10.1451 11.9398 9.75 12.9343 9.75C13.9289 9.75 14.8827 10.1451 15.586 10.8483C16.2892 11.5516 16.6843 12.5054 16.6843 13.5C16.6843 14.4946 16.2892 15.4484 15.586 16.1517C14.8827 16.8549 13.9289 17.25 12.9343 17.25C11.9398 17.25 10.9859 16.8549 10.2827 16.1517C9.57941 15.4484 9.18433 14.4946 9.18433 13.5Z" fill="black"/>
</g>
<defs>
<clipPath id="clip0_2_801">
<rect width="24" height="24" fill="white" transform="translate(0.934326)"/>
</clipPath>
</defs>
</svg>
