<svg width="27" height="24" viewBox="0 0 27 24" fill="none" xmlns="http://www.w3.org/2000/svg">
<g clip-path="url(#clip0_2_896)">
<path d="M10.1721 0.54541C9.1136 0.54541 8.1778 1.22041 7.84542 2.22268L7.30849 3.81814H3.67269C1.86758 3.81814 0.399963 5.28575 0.399963 7.09086V20.1818C0.399963 21.9869 1.86758 23.4545 3.67269 23.4545H23.3091C25.1142 23.4545 26.5818 21.9869 26.5818 20.1818V7.09086C26.5818 5.28575 25.1142 3.81814 23.3091 3.81814H19.6733L19.1414 2.22268C18.8039 1.22041 17.8681 0.54541 16.8096 0.54541H10.1721ZM9.39485 2.73916C9.50735 2.40677 9.81928 2.18177 10.1721 2.18177H16.8096C17.1625 2.18177 17.4744 2.40677 17.5869 2.73916L18.3028 4.892C18.4153 5.22439 18.7272 5.44939 19.0801 5.44939H23.3091C24.2142 5.44939 24.9454 6.18064 24.9454 7.08575V20.1818C24.9454 21.0869 24.2142 21.8181 23.3091 21.8181H3.67269C2.76758 21.8181 2.03633 21.0869 2.03633 20.1818V7.09086C2.03633 6.18575 2.76758 5.4545 3.67269 5.4545H7.90167C8.25451 5.4545 8.56644 5.2295 8.67894 4.89711L9.39485 2.74427V2.73916ZM18.4 12.8181C18.85 12.8181 19.2181 12.45 19.2181 12V8.72723C19.2181 8.27723 18.85 7.90905 18.4 7.90905C17.95 7.90905 17.5818 8.27723 17.5818 8.72723V10.0261L16.8608 9.30507C15.971 8.41018 14.7539 7.90905 13.4909 7.90905C11.4966 7.90905 9.74258 8.92666 8.71985 10.471C8.46928 10.8494 8.57155 11.3556 8.94996 11.6062C9.32837 11.8568 9.83462 11.7545 10.0852 11.3761C10.8164 10.2715 12.0693 9.54541 13.4909 9.54541C14.3193 9.54541 15.117 9.8778 15.7051 10.4608L16.4261 11.1818H15.1272C14.6772 11.1818 14.3091 11.55 14.3091 12C14.3091 12.45 14.6772 12.8181 15.1272 12.8181H18.4ZM8.58178 14.4545C8.13178 14.4545 7.7636 14.8227 7.7636 15.2727V18.5454C7.7636 18.9954 8.13178 19.3636 8.58178 19.3636C9.03178 19.3636 9.39996 18.9954 9.39996 18.5454V17.2465L10.121 17.9676C11.0108 18.8625 12.2278 19.3636 13.4909 19.3636C15.4852 19.3636 17.2392 18.346 18.2619 16.8017C18.5125 16.4233 18.4102 15.917 18.0318 15.6664C17.6534 15.4159 17.1471 15.5181 16.8966 15.8965C16.1653 17.0011 14.9125 17.7272 13.4909 17.7272C12.6625 17.7272 11.8647 17.3948 11.2767 16.8119L10.5556 16.0909H11.8545C12.3045 16.0909 12.6727 15.7227 12.6727 15.2727C12.6727 14.8227 12.3045 14.4545 11.8545 14.4545H8.58178Z" fill="black"/>
</g>
<defs>
<clipPath id="clip0_2_896">
<rect width="26.1818" height="24" fill="white" transform="translate(0.399994)"/>
</clipPath>
</defs>
</svg>
