<svg width="26" height="25" viewBox="0 0 26 25" fill="none" xmlns="http://www.w3.org/2000/svg">
<g clip-path="url(#clip0_2_928)">
<path d="M13.0818 1.5625C15.9826 1.5625 18.7646 2.71484 20.8158 4.76602C22.8669 6.8172 24.0193 9.59919 24.0193 12.5C24.0193 15.4008 22.8669 18.1828 20.8158 20.234C18.7646 22.2852 15.9826 23.4375 13.0818 23.4375C10.181 23.4375 7.39899 22.2852 5.34781 20.234C3.29663 18.1828 2.14429 15.4008 2.14429 12.5C2.14429 9.59919 3.29663 6.8172 5.34781 4.76602C7.39899 2.71484 10.181 1.5625 13.0818 1.5625ZM13.0818 25C16.397 25 19.5764 23.683 21.9206 21.3388C24.2648 18.9946 25.5818 15.8152 25.5818 12.5C25.5818 9.18479 24.2648 6.00537 21.9206 3.66117C19.5764 1.31696 16.397 0 13.0818 0C9.76658 0 6.58716 1.31696 4.24295 3.66117C1.89875 6.00537 0.581787 9.18479 0.581787 12.5C0.581787 15.8152 1.89875 18.9946 4.24295 21.3388C6.58716 23.683 9.76658 25 13.0818 25Z" fill="black"/>
</g>
<defs>
<clipPath id="clip0_2_928">
<rect width="25" height="25" fill="white" transform="translate(0.581787)"/>
</clipPath>
</defs>
</svg>
