<svg width="25" height="24" viewBox="0 0 25 24" fill="none" xmlns="http://www.w3.org/2000/svg">
<g clip-path="url(#clip0_2_785)">
<path d="M24.9343 11.25C24.9343 16.6359 19.5624 21 12.9343 21C11.1953 21 9.54525 20.7 8.05462 20.1609C7.49681 20.5688 6.58744 21.1266 5.50931 21.5953C4.38431 22.0828 3.02962 22.5 1.68431 22.5C1.37962 22.5 1.10775 22.3172 0.990562 22.0359C0.873375 21.7547 0.939 21.4359 1.14994 21.2203L1.164 21.2062C1.17806 21.1922 1.19681 21.1734 1.22494 21.1406C1.2765 21.0844 1.35619 20.9953 1.45463 20.8734C1.64681 20.6391 1.90462 20.2922 2.16712 19.8609C2.63587 19.0828 3.08119 18.0609 3.17025 16.9125C1.764 15.3187 0.934312 13.3641 0.934312 11.25C0.934312 5.86406 6.30619 1.5 12.9343 1.5C19.5624 1.5 24.9343 5.86406 24.9343 11.25Z" fill="black"/>
</g>
<defs>
<clipPath id="clip0_2_785">
<rect width="24" height="24" fill="white" transform="translate(0.934326)"/>
</clipPath>
</defs>
</svg>
