<svg width="25" height="24" viewBox="0 0 25 24" fill="none" xmlns="http://www.w3.org/2000/svg">
<g clip-path="url(#clip0_2_783)">
<path d="M12.9343 3C6.83119 3 2.43431 6.96562 2.43431 11.25C2.43431 12.9891 3.16087 14.5594 4.30931 15.9375C4.55306 16.2328 4.70306 16.6312 4.65619 17.0578C4.51087 18.3234 4.12181 19.5188 3.4515 20.6344C3.42806 20.6766 3.39994 20.7188 3.3765 20.7562C3.89681 20.6203 4.41713 20.4281 4.90931 20.2172C5.70619 19.8703 6.45619 19.4344 7.17806 18.9328C7.5765 18.6562 8.08744 18.5813 8.54681 18.7359C9.98119 19.2234 11.4343 19.5 12.9343 19.5C19.0374 19.5 23.4343 15.5344 23.4343 11.25C23.4343 6.96562 19.0374 3 12.9343 3ZM0.934312 11.25C0.934312 5.86875 6.3015 1.5 12.9343 1.5C19.5671 1.5 24.9343 5.86875 24.9343 11.25C24.9343 16.6313 19.5671 21 12.9343 21C11.2468 21 9.62962 20.6859 8.06869 20.1609C8.05931 20.1562 8.04525 20.1609 8.03587 20.1656C7.24369 20.7141 6.40931 21.2016 5.50931 21.5953C4.38431 22.0828 3.02962 22.5 1.68431 22.5C1.37962 22.5 1.10775 22.3172 0.990562 22.0406C0.873375 21.7641 0.939 21.4406 1.14994 21.225C1.52962 20.8406 1.86244 20.3719 2.16712 19.8656C2.71556 18.9469 3.04369 17.9625 3.16556 16.9078C3.16556 16.9078 3.16087 16.9031 3.16087 16.8984C1.85306 15.3328 0.934312 13.4344 0.934312 11.25Z" fill="black"/>
</g>
<defs>
<clipPath id="clip0_2_783">
<rect width="24" height="24" fill="white" transform="translate(0.934326)"/>
</clipPath>
</defs>
</svg>
