<svg width="21" height="24" viewBox="0 0 21 24" fill="none" xmlns="http://www.w3.org/2000/svg">
<path d="M15.5297 3.52966C15.8203 3.23904 15.8203 2.76091 15.5297 2.47029C15.2391 2.17966 14.7609 2.17966 14.4703 2.47029L7.50001 9.4406L4.27969 6.22029C3.98907 5.92966 3.51094 5.92966 3.22032 6.22029C2.92969 6.51091 2.92969 6.98904 3.22032 7.27966L6.97032 11.0297C7.26094 11.3203 7.73907 11.3203 8.02969 11.0297L15.5297 3.52966ZM20.7797 8.77966C21.0703 8.48904 21.0703 8.01091 20.7797 7.72029C20.4891 7.42966 20.0109 7.42966 19.7203 7.72029L7.50001 19.9406L1.27969 13.7203C0.989069 13.4297 0.510944 13.4297 0.220319 13.7203C-0.0703064 14.0109 -0.0703064 14.489 0.220319 14.7797L6.97032 21.5297C7.26094 21.8203 7.73907 21.8203 8.02969 21.5297L20.7797 8.77966Z" fill="black"/>
</svg>
