<svg width="24" height="24" viewBox="0 0 24 24" fill="none" xmlns="http://www.w3.org/2000/svg">
<g clip-path="url(#clip0_2_884)">
<path d="M11.9963 24C15.1789 24 18.2312 22.7357 20.4816 20.4853C22.7321 18.2348 23.9963 15.1826 23.9963 12C23.9963 8.8174 22.7321 5.76516 20.4816 3.51472C18.2312 1.26428 15.1789 0 11.9963 0C8.81374 0 5.76149 1.26428 3.51106 3.51472C1.26062 5.76516 -0.00366211 8.8174 -0.00366211 12C-0.00366211 15.1826 1.26062 18.2348 3.51106 20.4853C5.76149 22.7357 8.81374 24 11.9963 24ZM17.2932 9.79688L11.2932 15.7969C10.8526 16.2375 10.1401 16.2375 9.70415 15.7969L6.70415 12.7969C6.26353 12.3562 6.26353 11.6438 6.70415 11.2078C7.14478 10.7719 7.85728 10.7672 8.29321 11.2078L10.4963 13.4109L15.6995 8.20312C16.1401 7.7625 16.8526 7.7625 17.2885 8.20312C17.7245 8.64375 17.7292 9.35625 17.2885 9.79219L17.2932 9.79688Z" fill="black"/>
</g>
<defs>
<clipPath id="clip0_2_884">
<rect width="24" height="24" fill="white" transform="translate(-0.00366211)"/>
</clipPath>
</defs>
</svg>
