<svg width="22" height="24" viewBox="0 0 22 24" fill="none" xmlns="http://www.w3.org/2000/svg">
<g clip-path="url(#clip0_2_935)">
<path d="M3.29413 3C2.46444 3 1.79413 3.67031 1.79413 4.5V19.5C1.79413 20.3297 2.46444 21 3.29413 21H18.2941C19.1238 21 19.7941 20.3297 19.7941 19.5V4.5C19.7941 3.67031 19.1238 3 18.2941 3H3.29413ZM0.294128 4.5C0.294128 2.84531 1.63944 1.5 3.29413 1.5H18.2941C19.9488 1.5 21.2941 2.84531 21.2941 4.5V19.5C21.2941 21.1547 19.9488 22.5 18.2941 22.5H3.29413C1.63944 22.5 0.294128 21.1547 0.294128 19.5V4.5ZM15.8238 9.52969L9.82382 15.5297C9.53319 15.8203 9.05507 15.8203 8.76444 15.5297L5.76444 12.5297C5.47382 12.2391 5.47382 11.7609 5.76444 11.4703C6.05507 11.1797 6.53319 11.1797 6.82382 11.4703L9.29413 13.9406L14.7644 8.47031C15.0551 8.17969 15.5332 8.17969 15.8238 8.47031C16.1144 8.76094 16.1144 9.23906 15.8238 9.52969Z" fill="black"/>
</g>
<defs>
<clipPath id="clip0_2_935">
<rect width="21" height="24" fill="white" transform="translate(0.294128)"/>
</clipPath>
</defs>
</svg>
