<svg width="24" height="24" viewBox="0 0 24 24" fill="none" xmlns="http://www.w3.org/2000/svg">
<g clip-path="url(#clip0_2_886)">
<path d="M11.9963 24C15.1789 24 18.2312 22.7357 20.4816 20.4853C22.7321 18.2348 23.9963 15.1826 23.9963 12C23.9963 8.8174 22.7321 5.76516 20.4816 3.51472C18.2312 1.26428 15.1789 0 11.9963 0C8.81374 0 5.76149 1.26428 3.51106 3.51472C1.26062 5.76516 -0.00366211 8.8174 -0.00366211 12C-0.00366211 15.1826 1.26062 18.2348 3.51106 20.4853C5.76149 22.7357 8.81374 24 11.9963 24ZM8.19946 8.20312C8.64009 7.7625 9.35259 7.7625 9.78852 8.20312L11.9916 10.4062L14.1948 8.20312C14.6354 7.7625 15.3479 7.7625 15.7838 8.20312C16.2198 8.64375 16.2245 9.35625 15.7838 9.79219L13.5807 11.9953L15.7838 14.1984C16.2245 14.6391 16.2245 15.3516 15.7838 15.7875C15.3432 16.2234 14.6307 16.2281 14.1948 15.7875L11.9916 13.5844L9.78852 15.7875C9.3479 16.2281 8.6354 16.2281 8.19946 15.7875C7.76353 15.3469 7.75884 14.6344 8.19946 14.1984L10.4026 11.9953L8.19946 9.79219C7.75884 9.35156 7.75884 8.63906 8.19946 8.20312Z" fill="black"/>
</g>
<defs>
<clipPath id="clip0_2_886">
<rect width="24" height="24" fill="white" transform="translate(-0.00366211)"/>
</clipPath>
</defs>
</svg>
