<svg width="18" height="24" viewBox="0 0 18 24" fill="none" xmlns="http://www.w3.org/2000/svg">
<path d="M15.2109 19.2703C15.5016 19.5609 15.9797 19.5609 16.2703 19.2703C16.5609 18.9797 16.5609 18.5016 16.2703 18.2109L10.0594 12L16.2703 5.78906C16.5609 5.49844 16.5609 5.02031 16.2703 4.72969C15.9797 4.43906 15.5016 4.43906 15.2109 4.72969L9 10.9406L2.78906 4.72969C2.49844 4.43906 2.02031 4.43906 1.72969 4.72969C1.43906 5.02031 1.43906 5.49844 1.72969 5.78906L7.94062 12L1.72969 18.2109C1.43906 18.5016 1.43906 18.9797 1.72969 19.2703C2.02031 19.5609 2.49844 19.5609 2.78906 19.2703L9 13.0594L15.2109 19.2703Z" fill="black"/>
</svg>
