<svg width="31" height="24" viewBox="0 0 31 24" fill="none" xmlns="http://www.w3.org/2000/svg">
<g clip-path="url(#clip0_2_926)">
<path d="M18.8537 5.86875C17.6302 4.12969 15.6146 3 13.3318 3C9.70366 3 6.74585 5.85938 6.58647 9.44531C6.55835 10.0547 6.1646 10.5891 5.58804 10.7953C3.54429 11.5172 2.08179 13.4625 2.08179 15.75C2.08179 18.6516 4.43022 21 7.33179 21H24.5818C27.0662 21 29.0818 18.9844 29.0818 16.5C29.0818 14.775 28.1115 13.275 26.6818 12.5203C26.0537 12.1875 25.7443 11.4656 25.9412 10.7812C26.0349 10.4578 26.0818 10.1109 26.0818 9.75C26.0818 7.67812 24.4037 6 22.3318 6C21.7552 6 21.2115 6.13125 20.724 6.36094C20.063 6.675 19.2755 6.46875 18.8537 5.86875ZM13.3318 1.5C16.1208 1.5 18.5865 2.88281 20.0818 5.00625C20.7615 4.68281 21.5255 4.5 22.3318 4.5C25.2333 4.5 27.5818 6.84844 27.5818 9.75C27.5818 10.2516 27.5115 10.7344 27.3802 11.1938C29.2833 12.1969 30.5818 14.1984 30.5818 16.5C30.5818 19.8141 27.8958 22.5 24.5818 22.5H7.33179C3.60522 22.5 0.581787 19.4766 0.581787 15.75C0.581787 12.8062 2.46616 10.3078 5.09116 9.37969C5.28335 4.99688 8.89741 1.5 13.3318 1.5ZM11.3021 11.4703L15.0521 7.72031C15.3427 7.42969 15.8208 7.42969 16.1115 7.72031L19.8615 11.4703C20.1521 11.7609 20.1521 12.2391 19.8615 12.5297C19.5708 12.8203 19.0927 12.8203 18.8021 12.5297L16.3318 10.0594V17.25C16.3318 17.6625 15.9943 18 15.5818 18C15.1693 18 14.8318 17.6625 14.8318 17.25V10.0594L12.3615 12.5297C12.0708 12.8203 11.5927 12.8203 11.3021 12.5297C11.0115 12.2391 11.0115 11.7609 11.3021 11.4703Z" fill="black"/>
</g>
<defs>
<clipPath id="clip0_2_926">
<rect width="30" height="24" fill="white" transform="translate(0.581787)"/>
</clipPath>
</defs>
</svg>
