<svg width="30" height="24" viewBox="0 0 30 24" fill="none" xmlns="http://www.w3.org/2000/svg">
<g clip-path="url(#clip0_2_829)">
<path d="M3 1.5C2.17031 1.5 1.5 2.17031 1.5 3V16.5C1.5 17.3297 2.17031 18 3 18H3.25781C3.87656 16.2516 5.54063 15 7.5 15C9.45938 15 11.1281 16.2516 11.7422 18H18V3C18 2.17031 17.3297 1.5 16.5 1.5H3ZM3 19.5C1.34531 19.5 0 18.1547 0 16.5V3C0 1.34531 1.34531 0 3 0H16.5C18.1547 0 19.5 1.34531 19.5 3V4.5H22.5609C23.2172 4.5 23.8406 4.78594 24.2672 5.2875L27.9563 9.59063C28.3078 9.99844 28.5 10.5188 28.5 11.0531V18H29.25C29.6625 18 30 18.3375 30 18.75C30 19.1625 29.6625 19.5 29.25 19.5H27C27 21.9844 24.9844 24 22.5 24C20.0156 24 18 21.9844 18 19.5H12C12 21.9844 9.98438 24 7.5 24C5.01562 24 3 21.9844 3 19.5ZM19.5 10.5H26.7609L23.1281 6.2625C22.9875 6.09844 22.7766 6 22.5609 6H19.5V10.5ZM19.5 12V16.1437C20.2969 15.4312 21.3469 15 22.5 15C24.4594 15 26.1281 16.2516 26.7422 18H27V12H19.5ZM10.5 19.5C10.5 18.7044 10.1839 17.9413 9.62132 17.3787C9.05871 16.8161 8.29565 16.5 7.5 16.5C6.70435 16.5 5.94129 16.8161 5.37868 17.3787C4.81607 17.9413 4.5 18.7044 4.5 19.5C4.5 20.2956 4.81607 21.0587 5.37868 21.6213C5.94129 22.1839 6.70435 22.5 7.5 22.5C8.29565 22.5 9.05871 22.1839 9.62132 21.6213C10.1839 21.0587 10.5 20.2956 10.5 19.5ZM22.5 22.5C23.2956 22.5 24.0587 22.1839 24.6213 21.6213C25.1839 21.0587 25.5 20.2956 25.5 19.5C25.5 18.7044 25.1839 17.9413 24.6213 17.3787C24.0587 16.8161 23.2956 16.5 22.5 16.5C21.7044 16.5 20.9413 16.8161 20.3787 17.3787C19.8161 17.9413 19.5 18.7044 19.5 19.5C19.5 20.2956 19.8161 21.0587 20.3787 21.6213C20.9413 22.1839 21.7044 22.5 22.5 22.5Z" fill="black"/>
</g>
<defs>
<clipPath id="clip0_2_829">
<rect width="30" height="24" fill="white"/>
</clipPath>
</defs>
</svg>
