<svg width="24" height="24" viewBox="0 0 24 24" fill="none" xmlns="http://www.w3.org/2000/svg">
<g clip-path="url(#clip0_2_882)">
<path d="M4.49634 1.5C3.66665 1.5 2.99634 2.17031 2.99634 3V21C2.99634 21.8297 3.66665 22.5 4.49634 22.5H17.9963C18.826 22.5 19.4963 21.8297 19.4963 21V3C19.4963 2.17031 18.826 1.5 17.9963 1.5H4.49634ZM1.49634 3C1.49634 1.34531 2.84165 0 4.49634 0H17.9963C19.651 0 20.9963 1.34531 20.9963 3V21C20.9963 22.6547 19.651 24 17.9963 24H4.49634C2.84165 24 1.49634 22.6547 1.49634 21V3ZM12.7463 9C12.7463 8.60218 12.5883 8.22064 12.307 7.93934C12.0257 7.65804 11.6442 7.5 11.2463 7.5C10.8485 7.5 10.467 7.65804 10.1857 7.93934C9.90437 8.22064 9.74634 8.60218 9.74634 9C9.74634 9.39782 9.90437 9.77936 10.1857 10.0607C10.467 10.342 10.8485 10.5 11.2463 10.5C11.6442 10.5 12.0257 10.342 12.307 10.0607C12.5883 9.77936 12.7463 9.39782 12.7463 9ZM8.24634 9C8.24634 8.20435 8.56241 7.44129 9.12502 6.87868C9.68763 6.31607 10.4507 6 11.2463 6C12.042 6 12.805 6.31607 13.3677 6.87868C13.9303 7.44129 14.2463 8.20435 14.2463 9C14.2463 9.79565 13.9303 10.5587 13.3677 11.1213C12.805 11.6839 12.042 12 11.2463 12C10.4507 12 9.68763 11.6839 9.12502 11.1213C8.56241 10.5587 8.24634 9.79565 8.24634 9ZM9.74634 15C8.50415 15 7.49634 16.0078 7.49634 17.25C7.49634 17.6625 7.15884 18 6.74634 18C6.33384 18 5.99634 17.6625 5.99634 17.25C5.99634 15.1781 7.67446 13.5 9.74634 13.5H12.7463C14.8182 13.5 16.4963 15.1781 16.4963 17.25C16.4963 17.6625 16.1588 18 15.7463 18C15.3338 18 14.9963 17.6625 14.9963 17.25C14.9963 16.0078 13.9885 15 12.7463 15H9.74634ZM23.9963 3.75V6.75C23.9963 7.1625 23.6588 7.5 23.2463 7.5C22.8338 7.5 22.4963 7.1625 22.4963 6.75V3.75C22.4963 3.3375 22.8338 3 23.2463 3C23.6588 3 23.9963 3.3375 23.9963 3.75ZM23.2463 9C23.6588 9 23.9963 9.3375 23.9963 9.75V12.75C23.9963 13.1625 23.6588 13.5 23.2463 13.5C22.8338 13.5 22.4963 13.1625 22.4963 12.75V9.75C22.4963 9.3375 22.8338 9 23.2463 9ZM23.9963 15.75V18.75C23.9963 19.1625 23.6588 19.5 23.2463 19.5C22.8338 19.5 22.4963 19.1625 22.4963 18.75V15.75C22.4963 15.3375 22.8338 15 23.2463 15C23.6588 15 23.9963 15.3375 23.9963 15.75Z" fill="black"/>
</g>
<defs>
<clipPath id="clip0_2_882">
<rect width="24" height="24" fill="white" transform="translate(-0.00366211)"/>
</clipPath>
</defs>
</svg>
