<svg width="22" height="24" viewBox="0 0 22 24" fill="none" xmlns="http://www.w3.org/2000/svg">
<g clip-path="url(#clip0_2_904)">
<path d="M18.5818 16.5H11.0818C10.2521 16.5 9.58179 15.8297 9.58179 15V3C9.58179 2.17031 10.2521 1.5 11.0818 1.5H16.149C16.3458 1.5 16.538 1.57969 16.6787 1.72031L19.8615 4.90312C20.0021 5.04375 20.0818 5.23594 20.0818 5.43281V15C20.0818 15.8297 19.4115 16.5 18.5818 16.5ZM20.9208 3.83906L17.7427 0.660938C17.3209 0.239063 16.749 0 16.1537 0H11.0818C9.4271 0 8.08179 1.34531 8.08179 3V15C8.08179 16.6547 9.4271 18 11.0818 18H18.5818C20.2365 18 21.5818 16.6547 21.5818 15V5.43281C21.5818 4.8375 21.3427 4.26562 20.9208 3.84375V3.83906ZM3.58179 6C1.9271 6 0.581787 7.34531 0.581787 9V21C0.581787 22.6547 1.9271 24 3.58179 24H11.0818C12.7365 24 14.0818 22.6547 14.0818 21V19.5H12.5818V21C12.5818 21.8297 11.9115 22.5 11.0818 22.5H3.58179C2.7521 22.5 2.08179 21.8297 2.08179 21V9C2.08179 8.17031 2.7521 7.5 3.58179 7.5H6.58179V6H3.58179Z" fill="black"/>
</g>
<defs>
<clipPath id="clip0_2_904">
<rect width="21" height="24" fill="white" transform="translate(0.581787)"/>
</clipPath>
</defs>
</svg>
