<svg width="30" height="24" viewBox="0 0 30 24" fill="none" xmlns="http://www.w3.org/2000/svg">
<path d="M15.75 2.25C15.75 1.8375 16.0875 1.5 16.5 1.5H18.4172C19.3875 1.5 20.2453 2.11875 20.55 3.0375L20.7938 3.76406L23.4516 2.4375C23.6953 2.31563 23.9672 2.25 24.2438 2.25C24.9375 2.25 25.5 2.8125 25.5 3.51094V6.99375C25.5 7.6875 24.9375 8.25469 24.2391 8.25469C23.9625 8.25469 23.6953 8.18906 23.4469 8.06719L21.9844 7.33125L23.1797 10.9219C23.4469 10.8891 23.7234 10.875 24 10.875C25.9453 10.875 27.7078 11.6531 28.9922 12.9141C29.2875 13.2047 29.2922 13.6781 29.0016 13.9734C28.7109 14.2688 28.2375 14.2734 27.9422 13.9828C26.925 12.9891 25.5328 12.375 24 12.375C21.3516 12.375 19.125 14.2078 18.5297 16.6781C18.4781 16.8937 18.4359 17.1141 18.4125 17.3391C18.3703 17.7188 18.0469 18 17.6672 18H15.75H13.5H12C12 20.4844 9.98438 22.5 7.5 22.5C5.01562 22.5 3 20.4844 3 18H1.5C0.670312 18 0 17.3297 0 16.5V15C0 11.6859 2.68594 9 6 9H10.5C11.3297 9 12 9.67031 12 10.5V15C12 15.8297 12.6703 16.5 13.5 16.5H15H15.75H16.5H17.0344C17.0484 16.4391 17.0625 16.3828 17.0766 16.3219C17.6484 13.9406 19.4203 12.0281 21.7125 11.25L19.1344 3.51094C19.0312 3.20625 18.7453 3 18.4219 3H16.5C16.0875 3 15.75 2.6625 15.75 2.25ZM21.3141 5.32031C21.3234 5.325 21.3281 5.325 21.3375 5.32969L24 6.66094V3.83906L21.3375 5.17031C21.3188 5.17969 21.2953 5.18906 21.2766 5.19844L21.3187 5.32031H21.3141ZM5.25 6H11.25C11.6625 6 12 6.3375 12 6.75C12 7.1625 11.6625 7.5 11.25 7.5H5.25C4.8375 7.5 4.5 7.1625 4.5 6.75C4.5 6.3375 4.8375 6 5.25 6ZM10.5 10.5H6C3.51562 10.5 1.5 12.5156 1.5 15V16.5H3.25781H4.90312H10.0969H10.8984C10.6453 16.0594 10.4953 15.5484 10.4953 15V10.5H10.5ZM7.5 21C9.15469 21 10.5 19.6547 10.5 18H4.5C4.5 19.6547 5.84531 21 7.5 21ZM24 21C24.7956 21 25.5587 20.6839 26.1213 20.1213C26.6839 19.5587 27 18.7956 27 18C27 17.2044 26.6839 16.4413 26.1213 15.8787C25.5587 15.3161 24.7956 15 24 15C23.2044 15 22.4413 15.3161 21.8787 15.8787C21.3161 16.4413 21 17.2044 21 18C21 18.7956 21.3161 19.5587 21.8787 20.1213C22.4413 20.6839 23.2044 21 24 21ZM24 13.5C25.1935 13.5 26.3381 13.9741 27.182 14.818C28.0259 15.6619 28.5 16.8065 28.5 18C28.5 19.1935 28.0259 20.3381 27.182 21.182C26.3381 22.0259 25.1935 22.5 24 22.5C22.8065 22.5 21.6619 22.0259 20.818 21.182C19.9741 20.3381 19.5 19.1935 19.5 18C19.5 16.8065 19.9741 15.6619 20.818 14.818C21.6619 13.9741 22.8065 13.5 24 13.5Z" fill="black"/>
</svg>
