<svg width="24" height="24" viewBox="0 0 24 24" fill="none" xmlns="http://www.w3.org/2000/svg">
<g clip-path="url(#clip0_2_771)">
<path d="M13.5356 20.1703C13.6997 20.7703 14.3184 21.1219 14.9184 20.9578C15.5184 20.7937 15.87 20.175 15.7059 19.575L15.495 18.8062C15.2372 17.8594 14.8434 16.9641 14.3372 16.1391C14.1919 15.9094 14.1872 15.6187 14.3184 15.3797C14.4497 15.1406 14.7028 14.9953 14.9747 14.9953H20.9981C21.8278 14.9953 22.4981 14.325 22.4981 13.4953C22.4981 12.9656 22.2215 12.4969 21.8044 12.2297C21.4669 12.0141 21.359 11.5781 21.5559 11.2312C21.6778 11.0156 21.7481 10.7625 21.7481 10.4953C21.7481 9.91406 21.42 9.4125 20.9372 9.15937C20.7403 9.05625 20.595 8.87344 20.5481 8.65312C20.5012 8.43281 20.5528 8.20781 20.6887 8.03437C20.8856 7.78125 21.0028 7.4625 21.0028 7.12031C21.0028 6.45469 20.5715 5.8875 19.9669 5.69531C19.6012 5.57812 19.3856 5.19844 19.4653 4.82344C19.4887 4.72031 19.4981 4.6125 19.4981 4.5C19.4981 3.67031 18.8278 3 17.9981 3H13.8028C13.0622 3 12.3403 3.22031 11.7215 3.62812L9.91686 4.83281C9.49498 5.11406 9.13873 5.475 8.86686 5.89219C8.63717 6.23906 8.17311 6.33281 7.82623 6.10781C7.47936 5.88281 7.38561 5.41406 7.61061 5.06719C7.99029 4.49062 8.48717 3.98437 9.08248 3.58594L10.8872 2.38125C11.7497 1.80469 12.7622 1.5 13.7981 1.5H17.9981C19.6528 1.5 20.9981 2.84531 20.9981 4.5V4.52812C21.8934 5.04844 22.4981 6.01406 22.4981 7.125C22.4981 7.53281 22.4137 7.92656 22.2684 8.28281C22.8684 8.83125 23.2481 9.61875 23.2481 10.5C23.2481 10.8047 23.2012 11.1 23.1169 11.3766C23.6606 11.9203 23.9981 12.6703 23.9981 13.5C23.9981 15.1547 22.6528 16.5 20.9981 16.5H16.2356C16.5262 17.1141 16.7653 17.7516 16.9434 18.4172L17.1544 19.1859C17.534 20.5828 16.709 22.0266 15.3122 22.4109C13.9153 22.7953 12.4715 21.9656 12.0872 20.5687L11.8762 19.8C11.459 18.2719 10.4887 16.95 9.14811 16.0969L9.0028 16.0031C8.44967 15.6516 7.98561 15.2016 7.61998 14.6812C7.38092 14.3438 7.4653 13.875 7.80748 13.6359C8.14967 13.3969 8.61373 13.4812 8.85279 13.8234C9.10592 14.1844 9.42467 14.4984 9.80905 14.7375L9.95436 14.8312C11.609 15.8812 12.809 17.5125 13.3247 19.4016L13.5356 20.1703ZM1.49811 16.5H4.49811V6H1.49811V16.5ZM-0.00189209 16.5V6C-0.00189209 5.17031 0.66842 4.5 1.49811 4.5H4.49811C5.3278 4.5 5.99811 5.17031 5.99811 6V16.5C5.99811 17.3297 5.3278 18 4.49811 18H1.49811C0.66842 18 -0.00189209 17.3297 -0.00189209 16.5Z" fill="black"/>
</g>
<defs>
<clipPath id="clip0_2_771">
<rect width="24" height="24" fill="white" transform="translate(-0.00189209)"/>
</clipPath>
</defs>
</svg>
