<svg width="18" height="24" viewBox="0 0 18 24" fill="none" xmlns="http://www.w3.org/2000/svg">
<g clip-path="url(#clip0_2_876)">
<path d="M16.4963 21V9H11.2463C10.0042 9 8.99634 7.99219 8.99634 6.75V1.5H2.99634C2.16665 1.5 1.49634 2.17031 1.49634 3V21C1.49634 21.8297 2.16665 22.5 2.99634 22.5H14.9963C15.826 22.5 16.4963 21.8297 16.4963 21ZM16.4729 7.5C16.4401 7.36875 16.3745 7.24688 16.276 7.15313L10.8432 1.72031C10.7448 1.62188 10.6276 1.55625 10.4963 1.52344V6.75C10.4963 7.1625 10.8338 7.5 11.2463 7.5H16.4729ZM-0.00366211 3C-0.00366211 1.34531 1.34165 0 2.99634 0H10.3135C10.9088 0 11.4807 0.239063 11.9026 0.660938L17.3354 6.08906C17.7573 6.51094 17.9963 7.08281 17.9963 7.67813V21C17.9963 22.6547 16.651 24 14.9963 24H2.99634C1.34165 24 -0.00366211 22.6547 -0.00366211 21V3Z" fill="black"/>
</g>
<defs>
<clipPath id="clip0_2_876">
<rect width="18" height="24" fill="white" transform="translate(-0.00366211)"/>
</clipPath>
</defs>
</svg>
