<svg width="24" height="24" viewBox="0 0 24 24" fill="none" xmlns="http://www.w3.org/2000/svg">
<path d="M2.46663 11.4703C2.176 11.7609 2.176 12.239 2.46663 12.5297L11.4666 21.5297C11.7573 21.8203 12.2354 21.8203 12.526 21.5297C12.8166 21.239 12.8166 20.7609 12.526 20.4703L4.05569 12L12.526 3.52966C12.8166 3.23904 12.8166 2.76091 12.526 2.47029C12.2354 2.17966 11.7573 2.17966 11.4666 2.47029L2.46663 11.4703ZM20.4666 2.47029L11.4666 11.4703C11.176 11.7609 11.176 12.239 11.4666 12.5297L20.4666 21.5297C20.7573 21.8203 21.2354 21.8203 21.526 21.5297C21.8166 21.239 21.8166 20.7609 21.526 20.4703L13.0557 12L21.526 3.52966C21.8166 3.23904 21.8166 2.76091 21.526 2.47029C21.2354 2.17966 20.7573 2.17966 20.4666 2.47029Z" fill="black"/>
</svg>
