<svg width="46" height="24" viewBox="0 0 46 24" fill="none" xmlns="http://www.w3.org/2000/svg">
<g clip-path="url(#clip0_2_867)">
<path d="M43.7599 0.367199C44.2537 -0.122384 45.066 -0.122415 45.5598 0.367199C46.0535 0.85683 46.0535 1.66274 45.5598 2.15235L23.8986 23.6328C23.4049 24.1222 22.5925 24.1223 22.0988 23.6328L19.3752 21.0088L21.1789 19.2197L22.9992 20.9551L43.7599 0.367199Z" fill="black"/>
<path d="M36.0131 2.15212C36.5069 1.66249 36.5069 0.856972 36.0131 0.367344C35.5194 -0.122285 34.7071 -0.122285 34.2134 0.367344L13.4523 20.9554L2.88456 10.4758C2.39082 9.98618 1.57853 9.98618 1.08478 10.4758C0.591042 10.9654 0.591042 11.771 1.08478 12.2606L12.5524 23.6326C13.0461 24.1222 13.8584 24.1222 14.3521 23.6326L36.0131 2.15212Z" fill="black"/>
</g>
<defs>
<clipPath id="clip0_2_867">
<rect width="45.2155" height="24" fill="white" transform="translate(0.714478)"/>
</clipPath>
</defs>
</svg>
