<svg width="7" height="24" viewBox="0 0 7 24" fill="none" xmlns="http://www.w3.org/2000/svg">
<path d="M3.93433 18C3.5365 18 3.15497 18.158 2.87367 18.4393C2.59236 18.7206 2.43433 19.1022 2.43433 19.5C2.43433 19.8978 2.59236 20.2794 2.87367 20.5607C3.15497 20.842 3.5365 21 3.93433 21C4.33215 21 4.71368 20.842 4.99499 20.5607C5.27629 20.2794 5.43433 19.8978 5.43433 19.5C5.43433 19.1022 5.27629 18.7206 4.99499 18.4393C4.71368 18.158 4.33215 18 3.93433 18ZM3.93433 10.5C3.5365 10.5 3.15497 10.658 2.87367 10.9393C2.59236 11.2206 2.43433 11.6022 2.43433 12C2.43433 12.3978 2.59236 12.7794 2.87367 13.0607C3.15497 13.342 3.5365 13.5 3.93433 13.5C4.33215 13.5 4.71368 13.342 4.99499 13.0607C5.27629 12.7794 5.43433 12.3978 5.43433 12C5.43433 11.6022 5.27629 11.2206 4.99499 10.9393C4.71368 10.658 4.33215 10.5 3.93433 10.5ZM5.43433 4.5C5.43433 4.10218 5.27629 3.72064 4.99499 3.43934C4.71368 3.15804 4.33215 3 3.93433 3C3.5365 3 3.15497 3.15804 2.87367 3.43934C2.59236 3.72064 2.43433 4.10218 2.43433 4.5C2.43433 4.89782 2.59236 5.27936 2.87367 5.56066C3.15497 5.84196 3.5365 6 3.93433 6C4.33215 6 4.71368 5.84196 4.99499 5.56066C5.27629 5.27936 5.43433 4.89782 5.43433 4.5Z" fill="black"/>
</svg>
