<svg width="25" height="6" viewBox="0 0 25 6" fill="none" xmlns="http://www.w3.org/2000/svg">
<g clip-path="url(#clip0_2_795)">
<path d="M18.9343 3C18.9343 3.39782 19.0924 3.77936 19.3737 4.06066C19.655 4.34196 20.0365 4.5 20.4343 4.5C20.8322 4.5 21.2137 4.34197 21.495 4.06066C21.7763 3.77936 21.9343 3.39782 21.9343 3C21.9343 2.60218 21.7763 2.22064 21.495 1.93934C21.2137 1.65804 20.8322 1.5 20.4343 1.5C20.0365 1.5 19.655 1.65804 19.3737 1.93934C19.0924 2.22064 18.9343 2.60218 18.9343 3ZM11.4343 3C11.4343 3.39782 11.5924 3.77936 11.8737 4.06066C12.155 4.34196 12.5365 4.5 12.9343 4.5C13.3322 4.5 13.7137 4.34196 13.995 4.06066C14.2763 3.77936 14.4343 3.39782 14.4343 3C14.4343 2.60218 14.2763 2.22064 13.995 1.93934C13.7137 1.65804 13.3322 1.5 12.9343 1.5C12.5365 1.5 12.155 1.65804 11.8737 1.93934C11.5924 2.22064 11.4343 2.60218 11.4343 3ZM5.43433 1.5C5.0365 1.5 4.65497 1.65804 4.37367 1.93934C4.09236 2.22064 3.93433 2.60218 3.93433 3C3.93433 3.39782 4.09236 3.77936 4.37367 4.06066C4.65497 4.34196 5.0365 4.5 5.43433 4.5C5.83215 4.5 6.21368 4.34196 6.49499 4.06066C6.77629 3.77936 6.93433 3.39782 6.93433 3C6.93433 2.60218 6.77629 2.22064 6.49499 1.93934C6.21368 1.65804 5.83215 1.5 5.43433 1.5Z" fill="black"/>
</g>
<defs>
<clipPath id="clip0_2_795">
<rect width="6" height="24" fill="white" transform="translate(0.934326 6) rotate(-90)"/>
</clipPath>
</defs>
</svg>
