<svg width="25" height="24" viewBox="0 0 25 24" fill="none" xmlns="http://www.w3.org/2000/svg">
<g clip-path="url(#clip0_2_914)">
<path d="M3.58179 4.5C2.7521 4.5 2.08179 5.17031 2.08179 6V7.87031L11.2505 14.5922C12.0427 15.1734 13.1208 15.1734 13.913 14.5922L23.0818 7.87031V6C23.0818 5.17031 22.4115 4.5 21.5818 4.5H3.58179ZM2.08179 9.73125V18C2.08179 18.8297 2.7521 19.5 3.58179 19.5H21.5818C22.4115 19.5 23.0818 18.8297 23.0818 18V9.73125L14.799 15.8016C13.4771 16.7672 11.6818 16.7672 10.3646 15.8016L2.08179 9.73125ZM0.581787 6C0.581787 4.34531 1.9271 3 3.58179 3H21.5818C23.2365 3 24.5818 4.34531 24.5818 6V18C24.5818 19.6547 23.2365 21 21.5818 21H3.58179C1.9271 21 0.581787 19.6547 0.581787 18V6Z" fill="black"/>
</g>
<defs>
<clipPath id="clip0_2_914">
<rect width="24" height="24" fill="white" transform="translate(0.581787)"/>
</clipPath>
</defs>
</svg>
