<svg width="28" height="24" viewBox="0 0 28 24" fill="none" xmlns="http://www.w3.org/2000/svg">
<g clip-path="url(#clip0_2_797)">
<path d="M6.42812 6.375C8.44844 4.5 11.1344 3 14.4344 3C17.7344 3 20.4203 4.5 22.4406 6.375C24.4609 8.25 25.8109 10.5 26.4344 12C25.8109 13.5 24.4609 15.75 22.4406 17.625C20.4203 19.5 17.7344 21 14.4344 21C11.1344 21 8.44844 19.5 6.42812 17.625C4.40781 15.75 3.05781 13.5 2.43438 12C3.05781 10.5 4.40781 8.25 6.42812 6.375ZM14.4344 1.5C10.6469 1.5 7.61406 3.225 5.40625 5.27812C3.2125 7.3125 1.74531 9.75 1.05156 11.4234C0.896875 11.7937 0.896875 12.2062 1.05156 12.5766C1.74531 14.25 3.2125 16.6875 5.40625 18.7219C7.61406 20.775 10.6469 22.5 14.4344 22.5C18.2219 22.5 21.2547 20.775 23.4625 18.7219C25.6562 16.6828 27.1234 14.25 27.8219 12.5766C27.9766 12.2062 27.9766 11.7937 27.8219 11.4234C27.1234 9.75 25.6562 7.3125 23.4625 5.27812C21.2547 3.225 18.2219 1.5 14.4344 1.5ZM9.93438 12C9.93438 10.8065 10.4085 9.66193 11.2524 8.81802C12.0963 7.97411 13.2409 7.5 14.4344 7.5C15.6278 7.5 16.7724 7.97411 17.6164 8.81802C18.4603 9.66193 18.9344 10.8065 18.9344 12C18.9344 13.1935 18.4603 14.3381 17.6164 15.182C16.7724 16.0259 15.6278 16.5 14.4344 16.5C13.2409 16.5 12.0963 16.0259 11.2524 15.182C10.4085 14.3381 9.93438 13.1935 9.93438 12ZM20.4344 12C20.4344 10.4087 19.8022 8.88258 18.677 7.75736C17.5518 6.63214 16.0257 6 14.4344 6C12.8431 6 11.317 6.63214 10.1917 7.75736C9.06652 8.88258 8.43438 10.4087 8.43438 12C8.43438 13.5913 9.06652 15.1174 10.1917 16.2426C11.317 17.3679 12.8431 18 14.4344 18C16.0257 18 17.5518 17.3679 18.677 16.2426C19.8022 15.1174 20.4344 13.5913 20.4344 12Z" fill="black"/>
</g>
<defs>
<clipPath id="clip0_2_797">
<rect width="27" height="24" fill="white" transform="translate(0.934326)"/>
</clipPath>
</defs>
</svg>
