<svg width="21" height="24" viewBox="0 0 21 24" fill="none" xmlns="http://www.w3.org/2000/svg">
<path d="M14.3776 0.295313C14.5932 0.103125 14.8698 0 15.1557 0C15.962 0 16.5245 0.801562 16.2526 1.56094L13.0604 10.5H18.2307C18.9291 10.5 19.4963 11.0672 19.4963 11.7656C19.4963 12.1313 19.3417 12.4734 19.0698 12.7172L6.6104 23.7094C6.39946 23.8969 6.1229 24 5.83696 24C5.03071 24 4.46821 23.1984 4.7354 22.4391L7.93228 13.5H2.70571C2.04009 13.5 1.49634 12.9563 1.49634 12.2906C1.49634 11.9438 1.64634 11.6156 1.90415 11.3859L14.3776 0.295313ZM14.401 2.28281L3.46978 12H8.99634C9.24009 12 9.46978 12.1172 9.6104 12.3187C9.75103 12.5203 9.78384 12.7734 9.70415 13.0031L6.58696 21.7313L17.612 12H11.9963C11.7526 12 11.5229 11.8828 11.3823 11.6812C11.2416 11.4797 11.2088 11.2266 11.2885 10.9969L14.401 2.27812V2.28281Z" fill="black"/>
</svg>
