<svg width="19" height="24" viewBox="0 0 19 24" fill="none" xmlns="http://www.w3.org/2000/svg">
<g clip-path="url(#clip0_2_902)">
<path d="M2.08179 1.44844C2.08179 0.646875 2.73335 0 3.53022 0H11.1849C11.9583 0 12.5818 0.623437 12.5818 1.39687C12.5818 1.54688 12.5583 1.69688 12.5115 1.8375L10.6224 7.5H17.2599C17.9912 7.5 18.5818 8.09062 18.5818 8.82187C18.5818 9.08906 18.5021 9.34688 18.3521 9.56719L8.8271 23.4891C8.61147 23.8078 8.25054 23.9953 7.86616 23.9953C7.10679 23.9953 6.55366 23.2828 6.73647 22.5469L8.99585 13.5H2.03022C1.23335 13.5 0.581787 12.8484 0.581787 12.0516C0.581787 11.9813 0.586475 11.9156 0.59585 11.8453L2.08179 1.44844ZM3.58179 1.5C3.58179 1.55156 3.5771 1.60312 3.56772 1.65469L2.09116 12H9.95679C10.1865 12 10.4068 12.1078 10.5474 12.2906C10.688 12.4734 10.7396 12.7078 10.6833 12.9328L8.6396 21.1031L16.9224 9H9.58179C9.34272 9 9.11304 8.88281 8.97241 8.69062C8.83179 8.49844 8.79429 8.24531 8.86929 8.01562L11.0396 1.5H3.58179Z" fill="black"/>
</g>
<defs>
<clipPath id="clip0_2_902">
<rect width="18" height="24" fill="white" transform="translate(0.581787)"/>
</clipPath>
</defs>
</svg>
