<svg width="31" height="24" viewBox="0 0 31 24" fill="none" xmlns="http://www.w3.org/2000/svg">
<g clip-path="url(#clip0_2_787)">
<path d="M14.4343 3C14.4343 3.79219 14.1296 4.50938 13.6281 5.04375L14.889 7.73906C15.4609 7.57969 16.0609 7.49531 16.6843 7.49531C18.5125 7.49531 20.1718 8.22188 21.3859 9.40313L25.0234 6.73594C24.9625 6.50156 24.9343 6.25313 24.9343 6C24.9343 4.34531 26.2796 3 27.9343 3C29.589 3 30.9343 4.34531 30.9343 6C30.9343 7.65469 29.589 9 27.9343 9C27.3578 9 26.814 8.83594 26.3546 8.55L22.7171 11.2172C23.1765 12.1266 23.4343 13.1578 23.4343 14.2453C23.4343 15.1125 23.2703 15.9422 22.9703 16.7062L26.125 18.6C26.6265 18.2203 27.2546 17.9953 27.9296 17.9953C29.5843 17.9953 30.9296 19.3406 30.9296 20.9953C30.9296 22.65 29.5843 23.9953 27.9296 23.9953C26.275 23.9953 24.9296 22.65 24.9296 20.9953C24.9296 20.8359 24.9437 20.6812 24.9671 20.5312L21.8078 18.6375C20.575 20.0859 18.7375 21 16.6843 21C13.3375 21 10.5625 18.5672 10.0281 15.375H6.71401C6.2687 16.4766 5.19058 17.25 3.93433 17.25C2.27964 17.25 0.934326 15.9047 0.934326 14.25C0.934326 12.5953 2.27964 11.25 3.93433 11.25C5.19526 11.25 6.27339 12.0234 6.71401 13.125H10.0281C10.3375 11.2922 11.3828 9.70781 12.85 8.69531L11.589 5.99531C11.5375 6 11.4859 6 11.4343 6C9.77964 6 8.43433 4.65469 8.43433 3C8.43433 1.34531 9.77964 0 11.4343 0C13.089 0 14.4343 1.34531 14.4343 3ZM16.6843 18.75C17.2753 18.75 17.8604 18.6336 18.4064 18.4075C18.9524 18.1813 19.4484 17.8498 19.8663 17.432C20.2842 17.0141 20.6156 16.518 20.8418 15.9721C21.0679 15.4261 21.1843 14.8409 21.1843 14.25C21.1843 13.6591 21.0679 13.0739 20.8418 12.5279C20.6156 11.982 20.2842 11.4859 19.8663 11.068C19.4484 10.6502 18.9524 10.3187 18.4064 10.0925C17.8604 9.8664 17.2753 9.75 16.6843 9.75C16.0934 9.75 15.5082 9.8664 14.9623 10.0925C14.4163 10.3187 13.9202 10.6502 13.5023 11.068C13.0845 11.4859 12.753 11.982 12.5269 12.5279C12.3007 13.0739 12.1843 13.6591 12.1843 14.25C12.1843 14.8409 12.3007 15.4261 12.5269 15.9721C12.753 16.518 13.0845 17.0141 13.5023 17.432C13.9202 17.8498 14.4163 18.1813 14.9623 18.4075C15.5082 18.6336 16.0934 18.75 16.6843 18.75Z" fill="black"/>
</g>
<defs>
<clipPath id="clip0_2_787">
<rect width="30" height="24" fill="white" transform="translate(0.934326)"/>
</clipPath>
</defs>
</svg>
