<svg width="31" height="24" viewBox="0 0 31 24" fill="none" xmlns="http://www.w3.org/2000/svg">
<g clip-path="url(#clip0_2_789)">
<path d="M11.4343 1.5C11.8322 1.5 12.2137 1.65804 12.495 1.93934C12.7763 2.22064 12.9343 2.60218 12.9343 3C12.9343 3.39782 12.7763 3.77936 12.495 4.06066C12.2137 4.34196 11.8322 4.5 11.4343 4.5C11.0365 4.5 10.655 4.34196 10.3737 4.06066C10.0924 3.77936 9.93433 3.39782 9.93433 3C9.93433 2.60218 10.0924 2.22064 10.3737 1.93934C10.655 1.65804 11.0365 1.5 11.4343 1.5ZM11.4343 6C11.6453 6 11.8515 5.97656 12.0484 5.93906L13.8343 9.83906C12.5875 10.6453 11.7062 11.9672 11.4859 13.5H6.84058C6.50776 12.2063 5.3312 11.25 3.93433 11.25C2.27964 11.25 0.934326 12.5953 0.934326 14.25C0.934326 15.9047 2.27964 17.25 3.93433 17.25C5.3312 17.25 6.50776 16.2938 6.84058 15H11.4906C11.8562 17.5453 14.0406 19.5 16.689 19.5C18.3296 19.5 19.7968 18.7453 20.7578 17.5687L25.0609 20.1516C24.9812 20.4234 24.939 20.7094 24.939 21.0047C24.939 22.6594 26.2843 24.0047 27.939 24.0047C29.5937 24.0047 30.939 22.6594 30.939 21.0047C30.939 19.35 29.5937 18.0047 27.939 18.0047C27.1187 18.0047 26.3734 18.3328 25.8343 18.8672L21.5312 16.2844C21.7937 15.6609 21.939 14.9719 21.939 14.2547C21.939 13.3781 21.7234 12.5531 21.3437 11.8266L26.1156 8.39062C26.6218 8.775 27.2499 9.00469 27.9343 9.00469C29.589 9.00469 30.9343 7.65938 30.9343 6.00469C30.9343 4.35 29.589 3.00469 27.9343 3.00469C26.2796 3.00469 24.9343 4.35 24.9343 6.00469C24.9343 6.43125 25.0234 6.83906 25.1875 7.20938L20.4625 10.6031C19.5062 9.61406 18.1656 9 16.6843 9C16.1687 9 15.6718 9.075 15.1984 9.21094L13.3937 5.26875C14.0312 4.72031 14.4343 3.90937 14.4343 3C14.4343 1.34531 13.089 0 11.4343 0C9.77964 0 8.43433 1.34531 8.43433 3C8.43433 4.65469 9.77964 6 11.4343 6ZM27.9343 4.5C28.3321 4.5 28.7137 4.65804 28.995 4.93934C29.2763 5.22064 29.4343 5.60218 29.4343 6C29.4343 6.39782 29.2763 6.77936 28.995 7.06066C28.7137 7.34196 28.3321 7.5 27.9343 7.5C27.5365 7.5 27.155 7.34196 26.8737 7.06066C26.5924 6.77936 26.4343 6.39782 26.4343 6C26.4343 5.60218 26.5924 5.22064 26.8737 4.93934C27.155 4.65804 27.5365 4.5 27.9343 4.5ZM26.4343 21C26.4343 20.6022 26.5924 20.2206 26.8737 19.9393C27.155 19.658 27.5365 19.5 27.9343 19.5C28.3321 19.5 28.7137 19.658 28.995 19.9393C29.2763 20.2206 29.4343 20.6022 29.4343 21C29.4343 21.3978 29.2763 21.7794 28.995 22.0607C28.7137 22.342 28.3321 22.5 27.9343 22.5C27.5365 22.5 27.155 22.342 26.8737 22.0607C26.5924 21.7794 26.4343 21.3978 26.4343 21ZM3.93433 12.75C4.33215 12.75 4.71368 12.908 4.99499 13.1893C5.27629 13.4706 5.43433 13.8522 5.43433 14.25C5.43433 14.6478 5.27629 15.0294 4.99499 15.3107C4.71368 15.592 4.33215 15.75 3.93433 15.75C3.5365 15.75 3.15497 15.592 2.87367 15.3107C2.59236 15.0294 2.43433 14.6478 2.43433 14.25C2.43433 13.8522 2.59236 13.4706 2.87367 13.1893C3.15497 12.908 3.5365 12.75 3.93433 12.75ZM16.6843 10.5C17.6789 10.5 18.6327 10.8951 19.336 11.5983C20.0392 12.3016 20.4343 13.2554 20.4343 14.25C20.4343 15.2446 20.0392 16.1984 19.336 16.9016C18.6327 17.6049 17.6789 18 16.6843 18C15.6898 18 14.7359 17.6049 14.0327 16.9016C13.3294 16.1984 12.9343 15.2446 12.9343 14.25C12.9343 13.2554 13.3294 12.3016 14.0327 11.5983C14.7359 10.8951 15.6898 10.5 16.6843 10.5Z" fill="black"/>
</g>
<defs>
<clipPath id="clip0_2_789">
<rect width="30" height="24" fill="white" transform="translate(0.934326)"/>
</clipPath>
</defs>
</svg>
