<svg width="25" height="24" viewBox="0 0 25 24" fill="none" xmlns="http://www.w3.org/2000/svg">
<g clip-path="url(#clip0_2_920)">
<path d="M3.58179 3C2.7521 3 2.08179 3.67031 2.08179 4.5V15.4406L5.25522 12.2672C5.98647 11.5359 7.17241 11.5359 7.90835 12.2672L11.0818 15.4406L17.2552 9.26719C17.9865 8.53594 19.1724 8.53594 19.9083 9.26719L23.0818 12.4406V4.5C23.0818 3.67031 22.4115 3 21.5818 3H3.58179ZM2.08179 17.5594V19.5C2.08179 20.3297 2.7521 21 3.58179 21H5.52241L10.0224 16.5L6.84897 13.3266C6.70366 13.1812 6.4646 13.1812 6.31929 13.3266L2.08179 17.5594ZM18.849 10.3266C18.7037 10.1813 18.4646 10.1813 18.3193 10.3266L7.64116 21H21.5818C22.4115 21 23.0818 20.3297 23.0818 19.5V14.5594L18.849 10.3266ZM0.581787 4.5C0.581787 2.84531 1.9271 1.5 3.58179 1.5H21.5818C23.2365 1.5 24.5818 2.84531 24.5818 4.5V19.5C24.5818 21.1547 23.2365 22.5 21.5818 22.5H3.58179C1.9271 22.5 0.581787 21.1547 0.581787 19.5V4.5ZM8.08179 6.75C8.08179 6.55109 8.00277 6.36032 7.86212 6.21967C7.72146 6.07902 7.5307 6 7.33179 6C7.13287 6 6.94211 6.07902 6.80146 6.21967C6.6608 6.36032 6.58179 6.55109 6.58179 6.75C6.58179 6.94891 6.6608 7.13968 6.80146 7.28033C6.94211 7.42098 7.13287 7.5 7.33179 7.5C7.5307 7.5 7.72146 7.42098 7.86212 7.28033C8.00277 7.13968 8.08179 6.94891 8.08179 6.75ZM5.08179 6.75C5.08179 6.15326 5.31884 5.58097 5.7408 5.15901C6.16275 4.73705 6.73505 4.5 7.33179 4.5C7.92852 4.5 8.50082 4.73705 8.92278 5.15901C9.34473 5.58097 9.58179 6.15326 9.58179 6.75C9.58179 7.34674 9.34473 7.91903 8.92278 8.34099C8.50082 8.76295 7.92852 9 7.33179 9C6.73505 9 6.16275 8.76295 5.7408 8.34099C5.31884 7.91903 5.08179 7.34674 5.08179 6.75Z" fill="black"/>
</g>
<defs>
<clipPath id="clip0_2_920">
<rect width="24" height="24" fill="white" transform="translate(0.581787)"/>
</clipPath>
</defs>
</svg>
