<svg width="25" height="24" viewBox="0 0 25 24" fill="none" xmlns="http://www.w3.org/2000/svg">
<g clip-path="url(#clip0_2_924)">
<path d="M2.08179 6.1875V2.25C2.08179 1.8375 1.74429 1.5 1.33179 1.5C0.919287 1.5 0.581787 1.8375 0.581787 2.25V8.25C0.581787 8.6625 0.919287 9 1.33179 9H7.33179C7.74429 9 8.08179 8.6625 8.08179 8.25C8.08179 7.8375 7.74429 7.5 7.33179 7.5H3.09429C4.7771 3.95156 8.39585 1.5 12.5818 1.5C18.3802 1.5 23.0818 6.20156 23.0818 12C23.0818 17.7984 18.3802 22.5 12.5818 22.5C9.14585 22.5 6.09897 20.85 4.18179 18.3C3.93335 17.9672 3.4646 17.9016 3.13179 18.15C2.79897 18.3984 2.73335 18.8672 2.98179 19.2C5.17085 22.1156 8.65366 24 12.5818 24C19.2099 24 24.5818 18.6281 24.5818 12C24.5818 5.37188 19.2099 0 12.5818 0C8.06304 0 4.13022 2.49844 2.08179 6.1875ZM12.5818 6C12.1693 6 11.8318 6.3375 11.8318 6.75V12C11.8318 12.1969 11.9115 12.3891 12.0521 12.5297L15.8021 16.2797C16.0927 16.5703 16.5708 16.5703 16.8615 16.2797C17.1521 15.9891 17.1521 15.5109 16.8615 15.2203L13.3318 11.6906V6.75C13.3318 6.3375 12.9943 6 12.5818 6Z" fill="black"/>
</g>
<defs>
<clipPath id="clip0_2_924">
<rect width="24" height="24" fill="white" transform="translate(0.581787)"/>
</clipPath>
</defs>
</svg>
