<svg width="25" height="22" viewBox="0 0 25 22" fill="none" xmlns="http://www.w3.org/2000/svg">
<g clip-path="url(#clip0_2_779)">
<path d="M13.376 0.166724C13.126 -0.0541097 12.7468 -0.0541097 12.4927 0.166724L1.15933 10.1667C0.884327 10.4084 0.85516 10.8334 1.10099 11.1084C1.34683 11.3834 1.76766 11.4126 2.04266 11.1667L3.60099 9.79172V18.0001C3.60099 19.8417 5.09266 21.3334 6.93433 21.3334H18.9343C20.776 21.3334 22.2677 19.8417 22.2677 18.0001V9.79172L23.826 11.1667C24.101 11.4084 24.5218 11.3834 24.7677 11.1084C25.0135 10.8334 24.9843 10.4126 24.7093 10.1667L13.376 0.166724ZM4.93433 18.0001V8.61256L12.9343 1.55422L20.9343 8.61256V18.0001C20.9343 19.1042 20.0385 20.0001 18.9343 20.0001H16.2677V13.3334C16.2677 12.5959 15.6718 12.0001 14.9343 12.0001H10.9343C10.1968 12.0001 9.60099 12.5959 9.60099 13.3334V20.0001H6.93433C5.83016 20.0001 4.93433 19.1042 4.93433 18.0001ZM10.9343 20.0001V13.3334H14.9343V20.0001H10.9343Z" fill="black"/>
</g>
<defs>
<clipPath id="clip0_2_779">
<rect width="24" height="21.3333" fill="white" transform="translate(0.934326)"/>
</clipPath>
</defs>
</svg>
