<svg width="24" height="24" viewBox="0 0 24 24" fill="none" xmlns="http://www.w3.org/2000/svg">
<path d="M2.82352 9.52953C2.23786 9.52953 1.7647 10.0027 1.7647 10.5884V18.3111L4.00477 16.0711C4.52094 15.5549 5.35808 15.5549 5.87756 16.0711L8.11764 18.3111L12.4754 13.9534C12.9915 13.4372 13.8287 13.4372 14.3482 13.9534L16.5882 16.1935V10.5884C16.5882 10.0027 16.1151 9.52953 15.5294 9.52953H2.82352ZM1.7647 19.8067V21.1766C1.7647 21.7622 2.23786 22.2354 2.82352 22.2354H4.19337L7.36984 19.0589L5.12977 16.8189C5.02719 16.7163 4.85844 16.7163 4.75587 16.8189L1.7647 19.8067ZM13.6004 14.7012C13.4978 14.5986 13.329 14.5986 13.2265 14.7012L5.68896 22.2354H15.5294C16.1151 22.2354 16.5882 21.7622 16.5882 21.1766V17.6891L13.6004 14.7012ZM0.705872 10.5884C0.705872 9.42034 1.6555 8.4707 2.82352 8.4707H15.5294C16.6974 8.4707 17.647 9.42034 17.647 10.5884V21.1766C17.647 22.3446 16.6974 23.2942 15.5294 23.2942H2.82352C1.6555 23.2942 0.705872 22.3446 0.705872 21.1766V10.5884ZM5.99999 12.1766C5.99999 12.0362 5.94421 11.9015 5.84493 11.8022C5.74564 11.703 5.61099 11.6472 5.47058 11.6472C5.33017 11.6472 5.19551 11.703 5.09623 11.8022C4.99694 11.9015 4.94117 12.0362 4.94117 12.1766C4.94117 12.317 4.99694 12.4517 5.09623 12.5509C5.19551 12.6502 5.33017 12.706 5.47058 12.706C5.61099 12.706 5.74564 12.6502 5.84493 12.5509C5.94421 12.4517 5.99999 12.317 5.99999 12.1766ZM3.88234 12.1766C3.88234 11.7554 4.04967 11.3514 4.34753 11.0535C4.64538 10.7557 5.04935 10.5884 5.47058 10.5884C5.8918 10.5884 6.29578 10.7557 6.59363 11.0535C6.89148 11.3514 7.05881 11.7554 7.05881 12.1766C7.05881 12.5978 6.89148 13.0018 6.59363 13.2996C6.29578 13.5975 5.8918 13.7648 5.47058 13.7648C5.04935 13.7648 4.64538 13.5975 4.34753 13.2996C4.04967 13.0018 3.88234 12.5978 3.88234 12.1766Z" fill="black"/>
<path d="M14.8239 1.76465C18.9167 1.76483 22.235 5.08386 22.235 9.17676C22.2349 11.6941 20.9781 13.9163 19.0592 15.2559V13.9092C20.3581 12.7458 21.1763 11.0567 21.1764 9.17676C21.1764 5.66952 18.3311 2.82343 14.8239 2.82324C12.4713 2.82324 10.4195 4.10074 9.32095 6H12.1764C12.4676 6 12.7057 6.23815 12.7057 6.5293C12.7057 6.82047 12.4676 7.05859 12.1764 7.05859H7.94107C7.64995 7.05853 7.41177 6.82044 7.41177 6.5293V2.29395C7.41184 2.00286 7.64998 1.76471 7.94107 1.76465C8.23221 1.76465 8.4703 2.00282 8.47037 2.29395V5.3584C9.76743 3.20435 12.1272 1.76465 14.8239 1.76465Z" fill="black"/>
</svg>
