<svg width="24" height="24" viewBox="0 0 24 24" fill="none" xmlns="http://www.w3.org/2000/svg">
<g clip-path="url(#clip0_2_769)">
<path d="M13.5356 3.82963C13.6997 3.22963 14.3184 2.87807 14.9184 3.04213C15.5184 3.2062 15.87 3.82495 15.7059 4.42495L15.495 5.1937C15.2372 6.14057 14.8434 7.03588 14.3372 7.86088C14.1919 8.09057 14.1872 8.3812 14.3184 8.62026C14.4497 8.85932 14.7028 9.00463 14.9747 9.00463H20.9981C21.8278 9.00463 22.4981 9.67495 22.4981 10.5046C22.4981 11.0343 22.2215 11.5031 21.8044 11.7703C21.4669 11.9859 21.359 12.4218 21.5559 12.7687C21.6778 12.9843 21.7481 13.2374 21.7481 13.5046C21.7481 14.0859 21.42 14.5874 20.9372 14.8406C20.7403 14.9437 20.595 15.1265 20.5481 15.3468C20.5012 15.5671 20.5528 15.7921 20.6887 15.9656C20.8856 16.2187 21.0028 16.5374 21.0028 16.8796C21.0028 17.5453 20.5715 18.1124 19.9669 18.3046C19.6012 18.4218 19.3856 18.8015 19.4653 19.1765C19.4887 19.2796 19.4981 19.3874 19.4981 19.4999C19.4981 20.3296 18.8278 20.9999 17.9981 20.9999H13.8028C13.0622 20.9999 12.3403 20.7796 11.7215 20.3718L9.91686 19.1671C9.49498 18.8859 9.13873 18.5249 8.86686 18.1078C8.63717 17.7609 8.17311 17.6671 7.82623 17.8921C7.47936 18.1171 7.38561 18.5859 7.61061 18.9328C7.99029 19.5093 8.48717 20.0156 9.08248 20.414L10.8872 21.6187C11.7497 22.1953 12.7622 22.4999 13.7981 22.4999H17.9981C19.6528 22.4999 20.9981 21.1546 20.9981 19.4999V19.4718C21.8934 18.9515 22.4981 17.9859 22.4981 16.8749C22.4981 16.4671 22.4137 16.0734 22.2684 15.7171C22.8684 15.1687 23.2481 14.3812 23.2481 13.4999C23.2481 13.1953 23.2012 12.8999 23.1169 12.6234C23.6606 12.0796 23.9981 11.3296 23.9981 10.4999C23.9981 8.84526 22.6528 7.49995 20.9981 7.49995H16.2356C16.5262 6.88588 16.7653 6.24838 16.9434 5.58276L17.1544 4.81401C17.534 3.41713 16.709 1.97338 15.3122 1.58901C13.9153 1.20463 12.4715 2.03432 12.0872 3.4312L11.8762 4.19995C11.459 5.72807 10.4887 7.04995 9.14811 7.90307L9.0028 7.99682C8.44967 8.34838 7.98561 8.79838 7.61998 9.3187C7.38092 9.6562 7.4653 10.1249 7.80748 10.364C8.14967 10.6031 8.61373 10.5187 8.85279 10.1765C9.10592 9.81557 9.42467 9.50151 9.80905 9.26245L9.95436 9.1687C11.609 8.1187 12.809 6.48745 13.3247 4.59838L13.5356 3.82963ZM1.49811 10.4999H4.49811V20.9999H1.49811V10.4999ZM-0.00189209 10.4999V20.9999C-0.00189209 21.8296 0.66842 22.4999 1.49811 22.4999H4.49811C5.3278 22.4999 5.99811 21.8296 5.99811 20.9999V10.4999C5.99811 9.67026 5.3278 8.99995 4.49811 8.99995H1.49811C0.66842 8.99995 -0.00189209 9.67026 -0.00189209 10.4999Z" fill="black"/>
</g>
<defs>
<clipPath id="clip0_2_769">
<rect width="24" height="24" fill="white" transform="translate(-0.00189209)"/>
</clipPath>
</defs>
</svg>
