<svg width="25" height="24" viewBox="0 0 25 24" fill="none" xmlns="http://www.w3.org/2000/svg">
<g clip-path="url(#clip0_2_799)">
<path d="M15.625 1.54223C16.8437 1.78598 17.6359 2.97192 17.3921 4.19067L17.2843 4.72504C17.0359 5.97661 16.5765 7.16723 15.9343 8.25004H22.6843C23.9265 8.25004 24.9343 9.25786 24.9343 10.5C24.9343 11.3672 24.4421 12.1219 23.7203 12.4969C24.2312 12.9094 24.5593 13.5422 24.5593 14.25C24.5593 15.3469 23.7718 16.261 22.7359 16.4579C22.9421 16.8 23.0593 17.1985 23.0593 17.625C23.0593 18.6235 22.4078 19.4719 21.5078 19.7625C21.5406 19.9172 21.5593 20.0813 21.5593 20.25C21.5593 21.4922 20.5515 22.5 19.3093 22.5H14.739C13.8484 22.5 12.9812 22.2375 12.2406 21.7454L10.4359 20.5407C9.18433 19.7063 8.43433 18.3 8.43433 16.7954V15V12.75V11.5829C8.43433 10.2141 9.05776 8.92504 10.1218 8.06723L10.4687 7.79067C11.7109 6.79692 12.5593 5.40004 12.8687 3.84379L12.9765 3.30942C13.2203 2.09067 14.4062 1.29848 15.625 1.54223ZM2.43433 9.00004H5.43433C6.26401 9.00004 6.93433 9.67036 6.93433 10.5V21C6.93433 21.8297 6.26401 22.5 5.43433 22.5H2.43433C1.60464 22.5 0.934326 21.8297 0.934326 21V10.5C0.934326 9.67036 1.60464 9.00004 2.43433 9.00004Z" fill="black"/>
</g>
<defs>
<clipPath id="clip0_2_799">
<rect width="24" height="24" fill="white" transform="translate(0.934326)"/>
</clipPath>
</defs>
</svg>
