<svg width="31" height="24" viewBox="0 0 31 24" fill="none" xmlns="http://www.w3.org/2000/svg">
<g clip-path="url(#clip0_2_922)">
<path d="M28.3083 12C30.6521 9.65625 30.6521 5.85938 28.3083 3.51562C25.9646 1.17188 22.1677 1.17188 19.824 3.51562L18.7646 4.575C18.474 4.86562 18.474 5.34375 18.7646 5.63437C19.0552 5.925 19.5333 5.925 19.824 5.63437L20.8834 4.575C22.6412 2.81719 25.4912 2.81719 27.249 4.575C29.0068 6.33281 29.0068 9.18281 27.249 10.9406L21.4083 16.7766C19.6552 18.5297 16.8099 18.5297 15.0521 16.7766C13.3834 15.1078 13.2896 12.4359 14.8318 10.6547L15.0802 10.3687C15.3521 10.0547 15.3193 9.58125 15.0052 9.30938C14.6912 9.0375 14.2177 9.07031 13.9459 9.38437L13.6974 9.67031C11.6396 12.0469 11.7662 15.6094 13.988 17.8312C16.3271 20.1703 20.124 20.1703 22.463 17.8312L28.3083 12ZM2.85522 12C0.511475 14.3438 0.511475 18.1406 2.85522 20.4844C5.19897 22.8281 8.99585 22.8281 11.3396 20.4844L12.399 19.425C12.6896 19.1344 12.6896 18.6562 12.399 18.3656C12.1083 18.075 11.6302 18.075 11.3396 18.3656L10.2802 19.425C8.52241 21.1828 5.67241 21.1828 3.9146 19.425C2.15679 17.6672 2.15679 14.8172 3.9146 13.0594L9.75522 7.22344C11.5083 5.47031 14.3537 5.47031 16.1115 7.22344C17.7802 8.89219 17.874 11.5641 16.3318 13.3453L16.0834 13.6312C15.8115 13.9453 15.8443 14.4187 16.1583 14.6906C16.4724 14.9625 16.9458 14.9297 17.2177 14.6156L17.4662 14.3297C19.524 11.9531 19.3974 8.39063 17.1755 6.16875C14.8271 3.82031 11.0349 3.82031 8.69116 6.15937L2.85522 12Z" fill="black"/>
</g>
<defs>
<clipPath id="clip0_2_922">
<rect width="30" height="24" fill="white" transform="translate(0.581787)"/>
</clipPath>
</defs>
</svg>
