<svg width="15" height="24" viewBox="0 0 15 24" fill="none" xmlns="http://www.w3.org/2000/svg">
<g clip-path="url(#clip0_2_878)">
<path d="M7.49634 12C8.88872 12 10.2241 11.4469 11.2086 10.4623C12.1932 9.47774 12.7463 8.14239 12.7463 6.75C12.7463 5.35761 12.1932 4.02226 11.2086 3.03769C10.2241 2.05312 8.88872 1.5 7.49634 1.5C6.10395 1.5 4.76859 2.05312 3.78403 3.03769C2.79946 4.02226 2.24634 5.35761 2.24634 6.75C2.24634 8.14239 2.79946 9.47774 3.78403 10.4623C4.76859 11.4469 6.10395 12 7.49634 12ZM14.2463 6.75C14.2463 10.2234 11.6213 13.0875 8.24634 13.4578V23.25V24H6.74634V23.25V13.4578C3.37134 13.0828 0.746338 10.2234 0.746338 6.75C0.746338 3.02344 3.76978 0 7.49634 0C11.2229 0 14.2463 3.02344 14.2463 6.75ZM5.24634 6.75H3.74634C3.74634 4.67812 5.42446 3 7.49634 3V4.5C6.25415 4.5 5.24634 5.50781 5.24634 6.75Z" fill="black"/>
</g>
<defs>
<clipPath id="clip0_2_878">
<rect width="15" height="24" fill="white" transform="translate(-0.00366211)"/>
</clipPath>
</defs>
</svg>
