<svg width="18" height="24" viewBox="0 0 18 24" fill="none" xmlns="http://www.w3.org/2000/svg">
<g clip-path="url(#clip0_2_825)">
<path d="M16.5 9C16.5 4.85625 13.1438 1.5 9 1.5C4.85625 1.5 1.5 4.85625 1.5 9C1.5 9.94687 1.92656 11.2781 2.74219 12.8766C3.53437 14.4328 4.6125 16.0734 5.71406 17.5875C6.81094 19.0969 7.9125 20.4469 8.7375 21.4266C8.82656 21.5344 8.91562 21.6375 9 21.7359C9.08438 21.6375 9.16875 21.5344 9.2625 21.4266C10.0922 20.4516 11.1891 19.0969 12.2859 17.5875C13.3875 16.0734 14.4609 14.4328 15.2578 12.8766C16.0734 11.2781 16.5 9.94687 16.5 9ZM18 9C18 13.1625 12.3422 20.1516 9.99844 22.8703C9.38438 23.5828 9 24 9 24C9 24 8.61562 23.5828 8.00156 22.8703C5.65781 20.1516 0 13.1625 0 9C0 4.03125 4.03125 0 9 0C13.9688 0 18 4.03125 18 9ZM8.27813 12.0281L7.74844 12.5625L7.21875 12.0281L4.40625 9.21563L5.46562 8.15625L7.74844 10.4391L12.5297 5.65781L13.5938 6.71719L8.27813 12.0281Z" fill="black"/>
</g>
<defs>
<clipPath id="clip0_2_825">
<rect width="18" height="24" fill="white"/>
</clipPath>
</defs>
</svg>
