<svg width="22" height="24" viewBox="0 0 22 24" fill="none" xmlns="http://www.w3.org/2000/svg">
<g clip-path="url(#clip0_2_861)">
<path d="M6.71448 6V9H15.7145V6C15.7145 3.51562 13.6989 1.5 11.2145 1.5C8.7301 1.5 6.71448 3.51562 6.71448 6ZM5.21448 9V6C5.21448 2.68594 7.90042 0 11.2145 0C14.5285 0 17.2145 2.68594 17.2145 6V9H17.9645C20.0364 9 21.7145 10.6781 21.7145 12.75V20.25C21.7145 22.3219 20.0364 24 17.9645 24H4.46448C2.3926 24 0.714478 22.3219 0.714478 20.25V12.75C0.714478 10.6781 2.3926 9 4.46448 9H5.21448ZM2.21448 12.75V20.25C2.21448 21.4922 3.22229 22.5 4.46448 22.5H17.9645C19.2067 22.5 20.2145 21.4922 20.2145 20.25V12.75C20.2145 11.5078 19.2067 10.5 17.9645 10.5H4.46448C3.22229 10.5 2.21448 11.5078 2.21448 12.75Z" fill="black"/>
</g>
<defs>
<clipPath id="clip0_2_861">
<rect width="21" height="24" fill="white" transform="translate(0.714478)"/>
</clipPath>
</defs>
</svg>
