<svg width="18" height="24" viewBox="0 0 18 24" fill="none" xmlns="http://www.w3.org/2000/svg">
<path d="M12 4.5V12C12 13.6547 10.6547 15 9 15C7.34531 15 6 13.6547 6 12V4.5C6 2.84531 7.34531 1.5 9 1.5C10.6547 1.5 12 2.84531 12 4.5ZM4.5 4.5V12C4.5 14.4844 6.51562 16.5 9 16.5C11.4844 16.5 13.5 14.4844 13.5 12V4.5C13.5 2.01562 11.4844 0 9 0C6.51562 0 4.5 2.01562 4.5 4.5ZM3 9.75C3 9.3375 2.6625 9 2.25 9C1.8375 9 1.5 9.3375 1.5 9.75V12C1.5 15.8906 4.45781 19.0875 8.25 19.4625V22.5H5.25C4.8375 22.5 4.5 22.8375 4.5 23.25C4.5 23.6625 4.8375 24 5.25 24H9H12.75C13.1625 24 13.5 23.6625 13.5 23.25C13.5 22.8375 13.1625 22.5 12.75 22.5H9.75V19.4625C13.5422 19.0875 16.5 15.8906 16.5 12V9.75C16.5 9.3375 16.1625 9 15.75 9C15.3375 9 15 9.3375 15 9.75V12C15 15.3141 12.3141 18 9 18C5.68594 18 3 15.3141 3 12V9.75Z" fill="black"/>
</svg>
