<svg width="31" height="24" viewBox="0 0 31 24" fill="none" xmlns="http://www.w3.org/2000/svg">
<g clip-path="url(#clip0_2_910)">
<path d="M5.83181 0C5.41931 0 5.08181 0.3375 5.08181 0.75V6.75C5.08181 7.1625 5.41931 7.5 5.83181 7.5C6.24431 7.5 6.58181 7.1625 6.58181 6.75V2.55937L11.2084 7.18594C12.3709 8.34844 13.9412 9 15.5818 9C17.2224 9 18.7927 8.34844 19.9552 7.19062L25.1115 2.02969C25.4021 1.73906 25.4021 1.26094 25.1115 0.970313C24.8209 0.679688 24.3427 0.679688 24.0521 0.970313L18.8912 6.12656C18.0146 7.00781 16.824 7.5 15.5818 7.5C14.3396 7.5 13.149 7.00781 12.2724 6.12656L7.64119 1.5H11.8318C12.2443 1.5 12.5818 1.1625 12.5818 0.75C12.5818 0.3375 12.2443 0 11.8318 0H5.83181ZM2.41462 17.1797C4.65056 15.0047 9.30993 11.9578 15.5818 11.9578C21.8537 11.9578 26.5131 15.0047 28.749 17.175C29.1052 17.5219 29.1943 18.1031 28.9224 18.6422L27.1693 22.0875C27.0146 22.3922 26.6724 22.5562 26.3396 22.4813L22.1818 21.5531C21.8396 21.4781 21.5959 21.1734 21.5959 20.8219V16.9781C21.5959 16.6406 21.3709 16.3453 21.0427 16.2562L19.3506 15.7922C16.8849 15.1172 14.2834 15.1172 11.8177 15.7922L10.1256 16.2562C9.79744 16.3453 9.57244 16.6406 9.57244 16.9781V20.8266C9.57244 21.1781 9.32868 21.4828 8.9865 21.5578L4.82868 22.4859C4.49587 22.5609 4.15368 22.3969 3.999 22.0922L2.24587 18.6469C1.974 18.1078 2.06306 17.5266 2.41931 17.1797H2.41462ZM15.5818 10.4578C8.82244 10.4578 3.80681 13.7344 1.36931 16.1016C0.464622 16.9781 0.384935 18.2953 0.905247 19.3219L2.65837 22.7672C3.12243 23.6813 4.149 24.1687 5.15212 23.9437L9.30993 23.0156C10.3365 22.7859 11.0677 21.8719 11.0677 20.8172V17.55L12.2115 17.2359C14.4193 16.6313 16.7443 16.6313 18.9521 17.2359L20.0959 17.55V20.8219C20.0959 21.8766 20.8271 22.7906 21.8537 23.0203L26.0115 23.9484C27.0146 24.1734 28.0412 23.6859 28.5052 22.7719L30.2584 19.3266C30.7787 18.3 30.699 16.9828 29.7943 16.1063C27.3568 13.7391 22.3412 10.4625 15.5818 10.4625V10.4578Z" fill="black"/>
</g>
<defs>
<clipPath id="clip0_2_910">
<rect width="30" height="24" fill="white" transform="translate(0.581787)"/>
</clipPath>
</defs>
</svg>
