<svg width="19" height="24" viewBox="0 0 19 24" fill="none" xmlns="http://www.w3.org/2000/svg">
<g clip-path="url(#clip0_2_859)">
<path d="M18.7145 1.08281C18.7145 0.482813 18.2317 0 17.6317 0C17.5379 0 17.4442 0.0140625 17.3551 0.0375L10.2723 1.89844C9.94416 1.98281 9.71448 2.28281 9.71448 2.625V17.625C8.76291 16.9312 7.43166 16.5 5.96448 16.5C3.06291 16.5 0.714478 18.1781 0.714478 20.25C0.714478 22.3219 3.06291 24 5.96448 24C8.86604 24 11.2145 22.3219 11.2145 20.25V8.86406L18.1473 7.10156C18.4801 7.01719 18.7145 6.71719 18.7145 6.375V1.08281ZM9.71448 20.25C9.71448 20.6766 9.47542 21.2016 8.8051 21.6797C8.13479 22.1578 7.13635 22.5 5.96448 22.5C4.7926 22.5 3.79417 22.1578 3.12385 21.6797C2.45354 21.2016 2.21448 20.6766 2.21448 20.25C2.21448 19.8234 2.45354 19.2984 3.12385 18.8203C3.79417 18.3422 4.7926 18 5.96448 18C7.13635 18 8.13479 18.3422 8.8051 18.8203C9.47542 19.2984 9.71448 19.8234 9.71448 20.25ZM17.2145 5.79375L11.2145 7.31719V3.20156L17.2145 1.62187V5.78906V5.79375Z" fill="black"/>
</g>
<defs>
<clipPath id="clip0_2_859">
<rect width="18" height="24" fill="white" transform="translate(0.714478)"/>
</clipPath>
</defs>
</svg>
