<svg width="21" height="24" viewBox="0 0 21 24" fill="none" xmlns="http://www.w3.org/2000/svg">
<g clip-path="url(#clip0_2_773)">
<path d="M9.71847 0.75C9.71847 0.3375 10.0549 0 10.4662 0C10.8774 0 11.2139 0.3375 11.2139 0.75V1.5375C14.9946 1.9125 17.9434 5.10938 17.9434 9V10.3641C17.9434 12.4125 18.7565 14.3766 20.2006 15.8297L20.3314 15.9609C20.7193 16.35 20.939 16.8797 20.939 17.4281C20.939 18.5766 20.0136 19.5047 18.8687 19.5047H2.06836C0.923412 19.5 -0.00189209 18.5719 -0.00189209 17.4234C-0.00189209 16.875 0.217751 16.3453 0.605631 15.9562L0.736482 15.825C2.17584 14.3766 2.98899 12.4125 2.98899 10.3641V9C2.98899 5.10938 5.93781 1.9125 9.71847 1.5375V0.75ZM10.4662 3C7.1622 3 4.48443 5.68594 4.48443 9V10.3641C4.48443 12.8109 3.51707 15.1594 1.78796 16.8891L1.66179 17.0156C1.5543 17.1234 1.49355 17.2688 1.49355 17.4234C1.49355 17.7422 1.75058 18 2.06836 18H18.864C19.1818 18 19.4388 17.7422 19.4388 17.4234C19.4388 17.2688 19.3781 17.1234 19.2706 17.0156L19.1397 16.8844C17.4153 15.1547 16.4433 12.8062 16.4433 10.3594V9C16.4433 5.68594 13.7655 3 10.4615 3H10.4662ZM9.05487 21.5016C9.26049 22.0828 9.81661 22.5 10.4662 22.5C11.1158 22.5 11.6719 22.0828 11.8775 21.5016C12.013 21.1125 12.443 20.9062 12.8309 21.0422C13.2187 21.1781 13.4244 21.6094 13.2888 21.9984C12.8776 23.1656 11.77 24 10.4662 24C9.16236 24 8.0548 23.1656 7.64355 21.9984C7.50802 21.6094 7.70897 21.1781 8.10153 21.0422C8.49408 20.9062 8.91935 21.1078 9.05487 21.5016Z" fill="black"/>
</g>
<defs>
<clipPath id="clip0_2_773">
<rect width="20.9362" height="24" fill="white" transform="translate(-0.00189209)"/>
</clipPath>
</defs>
</svg>
