<svg width="21" height="24" viewBox="0 0 21 24" fill="none" xmlns="http://www.w3.org/2000/svg">
<g clip-path="url(#clip0_2_821)">
<path d="M8.25002 3.75C8.25002 3.45453 8.30821 3.16194 8.42129 2.88896C8.53436 2.61598 8.70009 2.36794 8.90903 2.15901C9.11796 1.95008 9.366 1.78434 9.63898 1.67127C9.91196 1.5582 10.2045 1.5 10.5 1.5C10.7955 1.5 11.0881 1.5582 11.3611 1.67127C11.634 1.78434 11.8821 1.95008 12.091 2.15901C12.2999 2.36794 12.4657 2.61598 12.5787 2.88896C12.6918 3.16194 12.75 3.45453 12.75 3.75C12.75 4.04547 12.6918 4.33806 12.5787 4.61104C12.4657 4.88402 12.2999 5.13206 12.091 5.34099C11.8821 5.54992 11.634 5.71566 11.3611 5.82873C11.0881 5.9418 10.7955 6 10.5 6C10.2045 6 9.91196 5.9418 9.63898 5.82873C9.366 5.71566 9.11796 5.54992 8.90903 5.34099C8.70009 5.13206 8.53436 4.88402 8.42129 4.61104C8.30821 4.33806 8.25002 4.04547 8.25002 3.75ZM14.25 3.75C14.25 2.75544 13.8549 1.80161 13.1517 1.09835C12.4484 0.395088 11.4946 0 10.5 0C9.50545 0 8.55163 0.395088 7.84837 1.09835C7.1451 1.80161 6.75002 2.75544 6.75002 3.75C6.75002 4.74456 7.1451 5.69839 7.84837 6.40165C8.55163 7.10491 9.50545 7.5 10.5 7.5C11.4946 7.5 12.4484 7.10491 13.1517 6.40165C13.8549 5.69839 14.25 4.74456 14.25 3.75ZM4.8422 12.8391C5.8172 11.3766 7.45314 10.5 9.21095 10.5H12.4031C13.8516 10.5 15.2391 11.1 16.2281 12.1547L18.8297 14.925C19.5141 15.6562 19.5047 16.7953 18.811 17.5125L15.211 21.225C14.9203 21.5203 14.9297 21.9984 15.225 22.2844C15.5203 22.5703 15.9985 22.5656 16.2844 22.2703L19.8844 18.5578C21.1406 17.2641 21.1547 15.2109 19.9219 13.8984L17.3203 11.1281C16.0453 9.76875 14.2641 9 12.3985 9H9.21095C6.95627 9 4.84689 10.1297 3.59533 12.0047L1.07814 15.7828C-0.0702963 17.5031 0.590641 19.8469 2.47033 20.7188L9.43595 23.9344C9.81095 24.1078 10.2563 23.9437 10.4297 23.5687C10.6031 23.1937 10.4391 22.7484 10.0641 22.575L3.09845 19.3547C2.05314 18.8719 1.68752 17.5688 2.32502 16.6125L4.8422 12.8391ZM9.00002 15C9.00002 14.5875 8.66252 14.25 8.25002 14.25C7.83752 14.25 7.50002 14.5875 7.50002 15V17.0344C7.50002 17.3156 7.5797 17.5922 7.7297 17.8312C8.96252 19.8047 11.1235 21 13.4485 21H13.5C13.9125 21 14.25 20.6625 14.25 20.25C14.25 19.8375 13.9125 19.5 13.5 19.5H13.4485C11.6391 19.5 9.96095 18.5672 9.00002 17.0344V15ZM12.75 15C12.9489 15 13.1397 15.079 13.2803 15.2197C13.421 15.3603 13.5 15.5511 13.5 15.75C13.5 15.9489 13.421 16.1397 13.2803 16.2803C13.1397 16.421 12.9489 16.5 12.75 16.5C12.5511 16.5 12.3603 16.421 12.2197 16.2803C12.079 16.1397 12 15.9489 12 15.75C12 15.5511 12.079 15.3603 12.2197 15.2197C12.3603 15.079 12.5511 15 12.75 15ZM12.75 18C13.3468 18 13.9191 17.7629 14.341 17.341C14.763 16.919 15 16.3467 15 15.75C15 15.1533 14.763 14.581 14.341 14.159C13.9191 13.7371 13.3468 13.5 12.75 13.5C12.1533 13.5 11.581 13.7371 11.159 14.159C10.7371 14.581 10.5 15.1533 10.5 15.75C10.5 16.3467 10.7371 16.919 11.159 17.341C11.581 17.7629 12.1533 18 12.75 18Z" fill="black"/>
</g>
<defs>
<clipPath id="clip0_2_821">
<rect width="21" height="24" fill="white"/>
</clipPath>
</defs>
</svg>
