<svg width="16" height="24" viewBox="0 0 16 24" fill="none" xmlns="http://www.w3.org/2000/svg">
<g clip-path="url(#clip0_2_874)">
<path d="M3.23067 3C1.98695 3 0.977905 4.00781 0.977905 5.25V18.75C0.977905 19.9922 1.98695 21 3.23067 21H4.73251C5.97622 21 6.98527 19.9922 6.98527 18.75V5.25C6.98527 4.00781 5.97622 3 4.73251 3H3.23067ZM12.2417 3C10.998 3 9.98895 4.00781 9.98895 5.25V18.75C9.98895 19.9922 10.998 21 12.2417 21H13.7435C14.9873 21 15.9963 19.9922 15.9963 18.75V5.25C15.9963 4.00781 14.9873 3 13.7435 3H12.2417Z" fill="black"/>
</g>
<defs>
<clipPath id="clip0_2_874">
<rect width="15.0184" height="24" fill="white" transform="translate(0.977905)"/>
</clipPath>
</defs>
</svg>
