<svg width="24" height="24" viewBox="0 0 24 24" fill="none" xmlns="http://www.w3.org/2000/svg">
<g clip-path="url(#clip0_2_803)">
<path d="M17.6906 2.12339L14.5594 5.24995L18.75 9.44058L21.8766 6.31401C22.4625 5.72808 22.4625 4.77651 21.8766 4.19058L19.8094 2.12339C19.2235 1.53745 18.2719 1.53745 17.686 2.12339H17.6906ZM13.111 4.57964L16.6313 1.05933C17.8031 -0.112549 19.7016 -0.112549 20.8735 1.05933L22.9406 3.12651C24.1125 4.29839 24.1125 6.19683 22.9406 7.3687L19.4203 10.889L17.6625 17.3437C17.3203 18.5906 16.3641 19.575 15.1219 19.95L2.22189 23.8171C1.64533 23.9906 1.0172 23.8312 0.595326 23.4046C0.173451 22.9781 0.00938851 22.3546 0.182826 21.7781L4.0547 8.87808C4.42501 7.64058 5.40939 6.67964 6.66095 6.33745L13.111 4.57964ZM13.2797 6.08901L7.0547 7.78589C6.3047 7.99214 5.71408 8.56401 5.49376 9.30933L2.00158 20.939L7.1672 15.7734C6.9047 15.3281 6.75001 14.8078 6.75001 14.25C6.75001 12.5953 8.09533 11.25 9.75001 11.25C11.4047 11.25 12.75 12.5953 12.75 14.25C12.75 15.9046 11.4047 17.25 9.75001 17.25C9.1922 17.25 8.67189 17.1 8.22658 16.8328L3.06095 21.9984L14.6906 18.5109C15.436 18.2859 16.0125 17.6953 16.2141 16.95L17.911 10.725L13.275 6.08901H13.2797ZM9.75001 12.75C9.35219 12.75 8.97066 12.908 8.68935 13.1893C8.40805 13.4706 8.25001 13.8521 8.25001 14.25C8.25001 14.6478 8.40805 15.0293 8.68935 15.3106C8.97066 15.5919 9.35219 15.75 9.75001 15.75C10.1478 15.75 10.5294 15.5919 10.8107 15.3106C11.092 15.0293 11.25 14.6478 11.25 14.25C11.25 13.8521 11.092 13.4706 10.8107 13.1893C10.5294 12.908 10.1478 12.75 9.75001 12.75Z" fill="black"/>
</g>
<defs>
<clipPath id="clip0_2_803">
<rect width="24" height="24" fill="white"/>
</clipPath>
</defs>
</svg>
