<svg width="24" height="24" viewBox="0 0 24 24" fill="none" xmlns="http://www.w3.org/2000/svg">
<g clip-path="url(#clip0_2_813)">
<path d="M17.6156 12.9C16.8469 12.5718 15.9563 12.7875 15.4266 13.4343L13.8703 15.3375C11.7141 14.0859 9.91406 12.2859 8.6625 10.1296L10.5609 8.57809C11.2078 8.0484 11.4281 7.15777 11.0953 6.38902L8.84531 1.13902C8.49375 0.314023 7.60781 -0.145351 6.73125 0.0421485L1.48125 1.16715C0.61875 1.34996 0 2.11402 0 2.99996C0 14.0953 8.60156 23.1796 19.5 23.9484C19.7109 23.9625 19.9266 23.9765 20.1422 23.9859C20.1422 23.9859 20.1422 23.9859 20.1469 23.9859C20.4328 23.9953 20.7141 24.0046 21.0047 24.0046C21.8906 24.0046 22.6547 23.3859 22.8375 22.5234L23.9625 17.2734C24.15 16.3968 23.6906 15.5109 22.8656 15.1593L17.6156 12.9093V12.9ZM20.9859 22.5C10.2234 22.4906 1.5 13.7671 1.5 2.99996C1.5 2.82184 1.62187 2.67184 1.79531 2.63434L7.04531 1.50934C7.21875 1.47184 7.39688 1.56559 7.46719 1.72965L9.71719 6.97965C9.78281 7.13434 9.74063 7.31246 9.60938 7.41559L7.70625 8.97184C7.13906 9.4359 6.98906 10.2468 7.35938 10.8843C8.74219 13.2703 10.7297 15.2578 13.1109 16.6359C13.7484 17.0062 14.5594 16.8562 15.0234 16.289L16.5797 14.3859C16.6875 14.2546 16.8656 14.2125 17.0156 14.2781L22.2656 16.5281C22.4297 16.5984 22.5234 16.7765 22.4859 16.95L21.3609 22.2C21.3234 22.3734 21.1687 22.4953 20.9953 22.4953C20.9906 22.4953 20.9859 22.4953 20.9813 22.4953L20.9859 22.5Z" fill="black"/>
</g>
<defs>
<clipPath id="clip0_2_813">
<rect width="24" height="24" fill="white"/>
</clipPath>
</defs>
</svg>
