<svg width="25" height="24" viewBox="0 0 25 24" fill="none" xmlns="http://www.w3.org/2000/svg">
<g clip-path="url(#clip0_2_912)">
<path d="M14.3021 9.22031L22.0224 1.5H17.8318C17.4193 1.5 17.0818 1.1625 17.0818 0.75C17.0818 0.3375 17.4193 0 17.8318 0H23.8318C24.2443 0 24.5818 0.3375 24.5818 0.75V6.75C24.5818 7.1625 24.2443 7.5 23.8318 7.5C23.4193 7.5 23.0818 7.1625 23.0818 6.75V2.55937L15.3615 10.2797C15.0708 10.5703 14.5927 10.5703 14.3021 10.2797C14.0115 9.98906 14.0115 9.51094 14.3021 9.22031ZM16.0084 13.4391C16.538 12.7922 17.4287 12.5719 18.1974 12.9047L23.4474 15.1547C24.2724 15.5062 24.7318 16.3969 24.5443 17.2687L23.4193 22.5187C23.2318 23.3813 22.4677 24 21.5865 24C21.3005 24 21.0146 23.9953 20.7287 23.9813H20.724C20.5084 23.9719 20.2974 23.9625 20.0818 23.9437C9.18335 23.1797 0.581787 14.0953 0.581787 3C0.581787 2.11406 1.20054 1.35 2.06304 1.16719L7.31304 0.0421875C8.1896 -0.145313 9.07554 0.314062 9.4271 1.13906L11.6771 6.38906C12.0052 7.15781 11.7896 8.04844 11.1427 8.57812L9.2396 10.1344C10.4912 12.2906 12.2912 14.0906 14.4474 15.3422L16.0037 13.4391H16.0084ZM21.5818 22.5C21.7599 22.5 21.9099 22.3781 21.9474 22.2047L23.0724 16.9547C23.1099 16.7812 23.0162 16.6031 22.8521 16.5328L17.6021 14.2828C17.4474 14.2172 17.2693 14.2594 17.1662 14.3906L15.6099 16.2938C15.1459 16.8609 14.3349 17.0109 13.6974 16.6406C11.3115 15.2578 9.32397 13.2703 7.94585 10.8891C7.57554 10.2516 7.72554 9.44063 8.29272 8.97656L10.1959 7.42031C10.3271 7.3125 10.3693 7.13438 10.3037 6.98438L8.05366 1.73438C7.98335 1.57031 7.80522 1.47656 7.63179 1.51406L2.38179 2.63906C2.20366 2.67188 2.08179 2.82188 2.08179 3C2.08179 13.7625 10.8052 22.4906 21.5677 22.5H21.5818Z" fill="black"/>
</g>
<defs>
<clipPath id="clip0_2_912">
<rect width="24" height="24" fill="white" transform="translate(0.581787)"/>
</clipPath>
</defs>
</svg>
