<svg width="18" height="24" viewBox="0 0 18 24" fill="none" xmlns="http://www.w3.org/2000/svg">
<g clip-path="url(#clip0_2_890)">
<path d="M5.62032 1.61719L5.05313 8.97187C5.02032 9.42656 4.77657 9.84375 4.40157 10.0969C3.13594 10.9547 2.18438 12.2625 1.79532 13.8281L1.5 15H8.25V10.5C8.25 10.0875 8.5875 9.75 9 9.75C9.4125 9.75 9.75 10.0875 9.75 10.5V15H16.5L16.2094 13.8281C15.8203 12.2625 14.8688 10.9547 13.6031 10.0969C13.2234 9.83906 12.9844 9.42656 12.9516 8.97187L12.3797 1.61719C12.375 1.57969 12.375 1.54219 12.375 1.5H5.625C5.625 1.5375 5.625 1.575 5.62032 1.61719ZM8.25 16.5H1.5C1.03594 16.5 0.600003 16.2891 0.318753 15.9234C0.037503 15.5578 -0.065622 15.0844 0.046878 14.6344L0.337503 13.4625C0.820315 11.5266 1.99688 9.91406 3.55782 8.85469L4.00782 3L4.125 1.5H3C2.86407 1.5 2.7375 1.4625 2.62969 1.40156C2.4 1.27031 2.25 1.02656 2.25 0.75C2.25 0.3375 2.5875 0 3 0H4.125H13.875H15C15.4125 0 15.75 0.3375 15.75 0.75C15.75 1.02656 15.6 1.27031 15.3703 1.40156C15.2625 1.4625 15.1359 1.5 15 1.5H13.875L13.9922 3L14.4422 8.85469C16.0031 9.91406 17.1797 11.5313 17.6625 13.4625L17.9531 14.6344C18.0656 15.0844 17.9625 15.5578 17.6813 15.9234C17.4 16.2891 16.9594 16.5 16.5 16.5H9.75V23.25C9.75 23.6625 9.4125 24 9 24C8.5875 24 8.25 23.6625 8.25 23.25V16.5Z" fill="black"/>
</g>
<defs>
<clipPath id="clip0_2_890">
<rect width="18" height="24" fill="white"/>
</clipPath>
</defs>
</svg>
