<svg width="30" height="24" viewBox="0 0 30 24" fill="none" xmlns="http://www.w3.org/2000/svg">
<g clip-path="url(#clip0_2_849)">
<path d="M9.75 1.5C4.95469 1.5 1.5 4.74375 1.5 8.25C1.5 9.98906 2.34375 11.4469 3.61406 12.7781C3.83906 13.0125 3.88594 13.3641 3.73125 13.65C3.22031 14.5969 2.66719 15.5625 1.96875 16.4578C3.43594 16.3172 4.93125 15.8391 6.25781 15.2391C6.53906 15.1125 6.81563 14.9766 7.10156 14.8312C7.25156 14.7562 7.42031 14.7328 7.57969 14.7656C8.31094 14.9109 9.02812 15 9.75 15C14.5453 15 18 11.7563 18 8.25C18 4.74375 14.5453 1.5 9.75 1.5ZM0 8.25C0 3.69844 4.36406 0 9.75 0C15.1359 0 19.5 3.69844 19.5 8.25C19.5 12.8016 15.1359 16.5 9.75 16.5C8.99531 16.5 8.26406 16.4156 7.54688 16.2844C7.33125 16.3922 7.10625 16.5 6.87656 16.6031C5.17969 17.3766 3.14062 18 1.125 18C0.675 18 0.271875 17.7328 0.09375 17.3203C-0.084375 16.9125 0 16.4344 0.3 16.1109L0.304688 16.1063C1.03125 15.3094 1.60781 14.3953 2.15625 13.4062C0.928125 12.0047 0 10.3219 0 8.25ZM20.7094 6.00937C25.8844 6.21094 30 9.825 30 14.25C30 16.3219 29.0719 18.0047 27.8438 19.4062C28.3922 20.3906 28.9688 21.3094 29.6953 22.1016L29.7 22.1063C30.0047 22.4344 30.0844 22.9078 29.9062 23.3156C29.7281 23.7281 29.3203 23.9953 28.875 23.9953C26.8594 23.9953 24.8203 23.3719 23.1234 22.6031C22.8937 22.5 22.6734 22.3922 22.4531 22.2844C21.7359 22.4156 21.0047 22.5 20.25 22.5C16.4016 22.5 13.0781 20.6156 11.4937 17.8828C12.0328 17.8078 12.5625 17.7 13.0781 17.5641C14.4563 19.5609 17.0531 21 20.25 21C20.9672 21 21.6844 20.9109 22.4203 20.7656C22.5844 20.7328 22.7531 20.7563 22.8984 20.8312C23.1844 20.9766 23.4609 21.1125 23.7422 21.2391C25.0734 21.8438 26.5641 22.3219 28.0312 22.4578C27.3328 21.5672 26.775 20.5969 26.2688 19.65C26.1141 19.3641 26.1609 19.0125 26.3859 18.7781C27.6563 17.4469 28.5 15.9891 28.5 14.25C28.5 10.9219 25.3875 7.82812 20.9719 7.52344C20.9297 7.00313 20.8406 6.49687 20.7094 6.00937ZM6.93281 4.87969C7.19062 4.15781 7.875 3.675 8.63906 3.675H10.575C11.7094 3.675 12.6234 4.59375 12.6234 5.72344C12.6234 6.45937 12.2297 7.13438 11.5922 7.5L10.5 8.12812V8.14219C10.5 8.55469 10.1625 8.89219 9.75 8.89219C9.3375 8.89219 9 8.55469 9 8.14219V7.69687C9 7.42969 9.14531 7.18125 9.375 7.04531L10.8469 6.20156C11.0156 6.10313 11.1234 5.92031 11.1234 5.72344C11.1234 5.41875 10.875 5.175 10.575 5.175H8.63906C8.50781 5.175 8.39062 5.25938 8.34375 5.38125L8.32969 5.42344C8.18906 5.8125 7.7625 6.01875 7.37344 5.87813C6.98438 5.7375 6.77813 5.31094 6.91875 4.92188L6.93281 4.87969ZM8.68594 11.0625C8.67627 10.9171 8.69656 10.7713 8.74554 10.6341C8.79453 10.4969 8.87116 10.3713 8.9707 10.2649C9.07023 10.1585 9.19055 10.0737 9.3242 10.0157C9.45785 9.95777 9.60198 9.92785 9.74766 9.92785C9.89334 9.92785 10.0375 9.95777 10.1711 10.0157C10.3048 10.0737 10.4251 10.1585 10.5246 10.2649C10.6242 10.3713 10.7008 10.4969 10.7498 10.6341C10.7988 10.7713 10.819 10.9171 10.8094 11.0625C10.819 11.2079 10.7988 11.3537 10.7498 11.4909C10.7008 11.6281 10.6242 11.7537 10.5246 11.8601C10.4251 11.9665 10.3048 12.0513 10.1711 12.1093C10.0375 12.1672 9.89334 12.1971 9.74766 12.1971C9.60198 12.1971 9.45785 12.1672 9.3242 12.1093C9.19055 12.0513 9.07023 11.9665 8.9707 11.8601C8.87116 11.7537 8.79453 11.6281 8.74554 11.4909C8.69656 11.3537 8.67627 11.2079 8.68594 11.0625Z" fill="black"/>
</g>
<defs>
<clipPath id="clip0_2_849">
<rect width="30" height="24" fill="white"/>
</clipPath>
</defs>
</svg>
