<svg width="27" height="24" viewBox="0 0 27 24" fill="none" xmlns="http://www.w3.org/2000/svg">
<path d="M22.7681 14.5425C21.6488 18.7782 17.79 21.9 13.2 21.9C10.3313 21.9 7.74938 20.6794 5.94376 18.7332L8.25001 16.4269C8.53688 16.14 8.70001 15.7463 8.70001 15.3413C8.70001 14.4919 8.01376 13.8057 7.16438 13.8057H1.50001C1.00501 13.8057 0.600006 14.2107 0.600006 14.7057V20.3644C0.600006 21.2138 1.28626 21.9 2.13563 21.9C2.54063 21.9 2.93438 21.7369 3.22126 21.45L4.66688 20.0044C6.80438 22.2769 9.83626 23.7 13.2 23.7C18.6788 23.7 23.28 19.9313 24.5513 14.8463C24.6863 14.3007 24.2588 13.8 23.6963 13.8C23.2575 13.8 22.8806 14.115 22.7681 14.5425ZM20.4563 5.26692L18.15 7.57317C17.8631 7.86005 17.7 8.2538 17.7 8.6588C17.7 9.50817 18.3863 10.1944 19.2356 10.1944H24.9C25.395 10.1944 25.8 9.78942 25.8 9.29442V3.63567C25.8 2.7863 25.1138 2.10005 24.2644 2.10005C23.8594 2.10005 23.4656 2.26317 23.1788 2.55005L21.7331 3.99567C19.5956 1.72317 16.5638 0.300049 13.2 0.300049C7.72126 0.300049 3.12001 4.0688 1.84876 9.1538C1.71376 9.69942 2.14126 10.2 2.70376 10.2C3.14251 10.2 3.51938 9.88505 3.63188 9.45755C4.75126 5.22192 8.61001 2.10005 13.2 2.10005C16.0688 2.10005 18.6506 3.32067 20.4619 5.26692H20.4563ZM24 8.40005H19.8713L24 4.2713V8.40005ZM2.40001 15.6H6.52876L2.40001 19.7288V15.6Z" fill="black"/>
</svg>
