<svg width="18" height="24" viewBox="0 0 18 24" fill="none" xmlns="http://www.w3.org/2000/svg">
<g clip-path="url(#clip0_2_843)">
<path d="M0 2.25C0 1.00781 1.00781 0 2.25 0H15.75C16.9922 0 18 1.00781 18 2.25V22.9641C18 23.5359 17.5359 24 16.9641 24C16.7578 24 16.5609 23.9391 16.3875 23.8266L9 18.9L1.6125 23.8266C1.44375 23.9391 1.24219 24 1.03594 24C0.464063 24 0 23.5359 0 22.9641V2.25ZM2.25 1.5C1.8375 1.5 1.5 1.8375 1.5 2.25V22.0969L8.58281 17.3766C8.83594 17.2078 9.16406 17.2078 9.41719 17.3766L16.5 22.0969V2.25C16.5 1.8375 16.1625 1.5 15.75 1.5H2.25Z" fill="black"/>
</g>
<defs>
<clipPath id="clip0_2_843">
<rect width="18" height="24" fill="white"/>
</clipPath>
</defs>
</svg>
