<svg width="24" height="24" viewBox="0 0 24 24" fill="none" xmlns="http://www.w3.org/2000/svg">
<path d="M0.159373 3.67034C-0.121877 3.10784 -0.0234393 2.42815 0.407811 1.96878C0.839061 1.5094 1.50937 1.37347 2.09062 1.61722L23.0906 10.6172C23.6437 10.8516 24 11.3953 24 11.9953C24 12.5953 23.6437 13.1391 23.0906 13.3735L2.09062 22.3735C1.51406 22.6219 0.839061 22.4813 0.407811 22.0219C-0.0234393 21.5625 -0.121877 20.8828 0.159373 20.3203L4.32187 12L0.159373 3.67034ZM5.625 12.75L1.5 21L20.7516 12.75H5.625ZM20.7516 11.25L1.5 3.00003L5.625 11.25H20.7516Z" fill="black"/>
</svg>
