<svg width="25" height="24" viewBox="0 0 25 24" fill="none" xmlns="http://www.w3.org/2000/svg">
<g clip-path="url(#clip0_2_898)">
<path d="M0.741162 3.67022C0.459912 3.10772 0.55835 2.42803 0.9896 1.96866C1.42085 1.50928 2.09116 1.37334 2.67241 1.61709L23.6724 10.6171C24.2255 10.8515 24.5818 11.3952 24.5818 11.9952C24.5818 12.5952 24.2255 13.139 23.6724 13.3733L2.67241 22.3733C2.09585 22.6218 1.42085 22.4812 0.9896 22.0218C0.55835 21.5624 0.459912 20.8827 0.741162 20.3202L4.90366 11.9999L0.741162 3.67022ZM6.20679 12.7499L2.08179 20.9999L21.3333 12.7499H6.20679ZM21.3333 11.2499L2.08179 2.99991L6.20679 11.2499H21.3333Z" fill="black"/>
</g>
<defs>
<clipPath id="clip0_2_898">
<rect width="24" height="24" fill="white" transform="translate(0.581787)"/>
</clipPath>
</defs>
</svg>
