<svg width="25" height="24" viewBox="0 0 25 24" fill="none" xmlns="http://www.w3.org/2000/svg">
<g clip-path="url(#clip0_2_791)">
<path d="M11.4015 1.77187C11.4202 1.70156 11.4624 1.64062 11.514 1.59375C11.978 1.53281 12.4515 1.5 12.9343 1.5C13.4171 1.5 13.8905 1.53281 14.3546 1.59375C14.4062 1.64062 14.4437 1.70156 14.4671 1.77187L15.1093 4.00781C15.2734 4.575 15.6812 4.99687 16.164 5.23125C16.5202 5.4 16.8577 5.59687 17.1812 5.81719C17.6218 6.12187 18.1984 6.2625 18.7702 6.12188L21.0296 5.55937C21.0999 5.54063 21.1702 5.54531 21.2359 5.56875C21.489 5.89219 21.7234 6.23438 21.9343 6.59063L22.1359 6.9375C22.3327 7.28906 22.5062 7.65469 22.6609 8.02969C22.6468 8.1 22.614 8.16563 22.5624 8.21719L20.9405 9.89062C20.5327 10.3125 20.3687 10.8797 20.4109 11.4141C20.4249 11.6062 20.4343 11.8031 20.4343 12C20.4343 12.1969 20.4249 12.3938 20.4109 12.5859C20.3687 13.1203 20.5327 13.6875 20.9405 14.1094L22.5577 15.7828C22.6093 15.8344 22.6421 15.9 22.6562 15.9703C22.5015 16.3453 22.328 16.7109 22.1312 17.0672L21.9343 17.4094C21.7187 17.7656 21.4843 18.1031 21.2359 18.4313C21.1702 18.4547 21.0999 18.4547 21.0296 18.4406L18.7702 17.8781C18.1984 17.7375 17.6265 17.8781 17.1812 18.1828C16.8577 18.4031 16.5202 18.6 16.164 18.7687C15.6812 18.9984 15.2687 19.425 15.1093 19.9922L14.4671 22.2281C14.4484 22.2984 14.4062 22.3594 14.3546 22.4062C13.8905 22.4672 13.4171 22.5 12.9343 22.5C12.4515 22.5 11.978 22.4672 11.514 22.4062C11.4624 22.3594 11.4249 22.2984 11.4015 22.2281L10.7593 19.9922C10.5952 19.425 10.1874 19.0031 9.70461 18.7687C9.34836 18.6 9.01086 18.4031 8.68742 18.1828C8.2468 17.8781 7.67023 17.7375 7.09836 17.8781L4.83898 18.4406C4.76867 18.4594 4.69836 18.4547 4.63273 18.4313C4.37961 18.1031 4.14523 17.7656 3.92961 17.4094L3.73273 17.0672C3.53586 16.7156 3.36242 16.35 3.20773 15.9703C3.2218 15.9 3.25461 15.8344 3.30617 15.7828L4.92805 14.1094C5.33586 13.6875 5.49992 13.1203 5.45773 12.5859C5.44367 12.3938 5.4343 12.1969 5.4343 12C5.4343 11.8031 5.44367 11.6062 5.45773 11.4141C5.49992 10.8797 5.33586 10.3125 4.92805 9.89062L3.31086 8.2125C3.2593 8.16094 3.22648 8.09531 3.21242 8.025C3.36711 7.65 3.54055 7.28438 3.73742 6.92813L3.9343 6.58594C4.14992 6.22969 4.3843 5.89219 4.63742 5.56406C4.70305 5.54062 4.77336 5.54063 4.84367 5.55469L7.10305 6.11719C7.67492 6.25781 8.2468 6.11719 8.69211 5.8125C9.01555 5.59219 9.35305 5.39531 9.7093 5.22656C10.1921 4.99687 10.6046 4.57031 10.764 4.00313L11.4062 1.76719L11.4015 1.77187ZM12.9343 0C12.3249 0 11.7202 0.046875 11.1343 0.135938C11.0546 0.15 10.9749 0.173438 10.8999 0.210938C10.4546 0.440625 10.1077 0.848438 9.96242 1.35938L9.32023 3.59531C9.29211 3.69844 9.20305 3.80625 9.05773 3.87656C8.63117 4.07812 8.22336 4.31719 7.83898 4.57969C7.70773 4.66875 7.56711 4.69219 7.46398 4.66406L5.20461 4.10156C4.69367 3.975 4.16867 4.07344 3.7468 4.34062C3.67648 4.38281 3.61555 4.43906 3.56398 4.50469C3.23117 4.92188 2.9218 5.35781 2.64523 5.81719L2.64055 5.83125L2.4343 6.1875L2.42961 6.20156C2.17648 6.66094 1.95148 7.13437 1.7593 7.62656C1.73117 7.70156 1.71242 7.78125 1.70773 7.86094C1.6843 8.36719 1.86242 8.87344 2.23273 9.25781L3.84992 10.9312C3.92492 11.0109 3.97648 11.1375 3.96242 11.2969C3.94367 11.5312 3.9343 11.7656 3.9343 12C3.9343 12.2344 3.94367 12.4734 3.96242 12.7031C3.97648 12.8625 3.92492 12.9937 3.84992 13.0687L2.23273 14.7469C1.86242 15.1313 1.6843 15.6375 1.70773 16.1437C1.71242 16.2234 1.73117 16.3031 1.7593 16.3781C1.95148 16.8703 2.17648 17.3438 2.42961 17.8031L2.4343 17.8172L2.64055 18.1734L2.64523 18.1875C2.9218 18.6469 3.22648 19.0875 3.56398 19.5047C3.61555 19.5703 3.67648 19.6266 3.7468 19.6688C4.16867 19.9359 4.69367 20.0344 5.20461 19.9078L7.46398 19.3453C7.56711 19.3172 7.70773 19.3406 7.83898 19.4297C8.22336 19.6969 8.63117 19.9312 9.05773 20.1328C9.20305 20.2031 9.28742 20.3109 9.32023 20.4141L9.96242 22.6406C10.1077 23.1469 10.4546 23.5547 10.8999 23.7891C10.9749 23.8266 11.0499 23.8547 11.1343 23.8641C11.7202 23.9531 12.3249 24 12.9343 24C13.5437 24 14.1484 23.9531 14.7343 23.8641C14.814 23.85 14.8937 23.8266 14.9687 23.7891C15.414 23.5594 15.7609 23.1516 15.9062 22.6406L16.5484 20.4047C16.5765 20.3016 16.6655 20.1937 16.8109 20.1234C17.2374 19.9219 17.6452 19.6828 18.0296 19.4203C18.1609 19.3312 18.3015 19.3078 18.4046 19.3359L20.664 19.8984C21.1749 20.025 21.6999 19.9312 22.1218 19.6594C22.1921 19.6172 22.253 19.5609 22.3046 19.4953C22.6374 19.0781 22.9421 18.6422 23.2187 18.1828L23.2234 18.1688L23.4343 17.8125L23.439 17.7984C23.6921 17.3438 23.9171 16.8656 24.1093 16.3734C24.1374 16.2984 24.1562 16.2188 24.1609 16.1391C24.1843 15.6328 24.0062 15.1266 23.6359 14.7422L22.0187 13.0687C21.9437 12.9891 21.8921 12.8625 21.9062 12.7031C21.9249 12.4688 21.9343 12.2344 21.9343 12C21.9343 11.7656 21.9249 11.5266 21.9062 11.2969C21.8921 11.1375 21.9437 11.0062 22.0187 10.9312L23.6359 9.25781C24.0062 8.87344 24.1843 8.36719 24.1609 7.86094C24.1562 7.78125 24.1374 7.70156 24.1093 7.62656C23.9171 7.13437 23.6921 6.66094 23.439 6.20156L23.4343 6.1875L23.228 5.83125L23.2234 5.81719C22.9468 5.35781 22.6421 4.91719 22.3093 4.50469C22.2577 4.43906 22.1968 4.38281 22.1265 4.34062C21.7046 4.07344 21.1796 3.975 20.6687 4.10156L18.4093 4.66406C18.3062 4.69219 18.1655 4.66875 18.0343 4.57969C17.6499 4.3125 17.2421 4.07812 16.8155 3.87656C16.6702 3.80625 16.5859 3.69844 16.553 3.59531L15.9062 1.35938C15.7609 0.853125 15.414 0.445312 14.9687 0.210938C14.8937 0.173438 14.8187 0.145313 14.7343 0.135938C14.1484 0.046875 13.5437 0 12.9343 0ZM10.3093 12C10.3093 11.3038 10.5859 10.6361 11.0781 10.1438C11.5704 9.65156 12.2381 9.375 12.9343 9.375C13.6305 9.375 14.2982 9.65156 14.7905 10.1438C15.2827 10.6361 15.5593 11.3038 15.5593 12C15.5593 12.6962 15.2827 13.3639 14.7905 13.8562C14.2982 14.3484 13.6305 14.625 12.9343 14.625C12.2381 14.625 11.5704 14.3484 11.0781 13.8562C10.5859 13.3639 10.3093 12.6962 10.3093 12ZM17.0593 12C17.0593 10.906 16.6247 9.85677 15.8511 9.08318C15.0775 8.3096 14.0283 7.875 12.9343 7.875C11.8403 7.875 10.7911 8.3096 10.0175 9.08318C9.24389 9.85677 8.8093 10.906 8.8093 12C8.8093 13.094 9.24389 14.1432 10.0175 14.9168C10.7911 15.6904 11.8403 16.125 12.9343 16.125C14.0283 16.125 15.0775 15.6904 15.8511 14.9168C16.6247 14.1432 17.0593 13.094 17.0593 12Z" fill="black"/>
</g>
<defs>
<clipPath id="clip0_2_791">
<rect width="24" height="24" fill="white" transform="translate(0.934326)"/>
</clipPath>
</defs>
</svg>
