<svg width="24" height="24" viewBox="0 0 24 24" fill="none" xmlns="http://www.w3.org/2000/svg">
<path d="M13.875 7.49997C14.4984 7.49997 15 6.99841 15 6.37497V5.99997V5.24997V2.99997L22.5 9.74997L15 16.5V14.25V13.5V13.125C15 12.5015 14.4984 12 13.875 12H13.5H9C5.68594 12 3 14.6859 3 18C3 18.389 3.03281 18.7547 3.09375 19.0875C2.24531 17.9859 1.5 16.4109 1.5 14.25C1.5 10.5234 4.52344 7.49997 8.25 7.49997H13.5H13.875ZM13.5 14.25V15V16.5C13.5 17.0906 13.8469 17.6297 14.3906 17.8687C14.9344 18.1078 15.5625 18.0093 16.0031 17.6156L23.5031 10.8656C23.8172 10.5797 24 10.1765 24 9.74997C24 9.32341 23.8219 8.92028 23.5031 8.63434L16.0031 1.88434C15.5625 1.48591 14.9297 1.38747 14.3906 1.63122C13.8516 1.87497 13.5 2.40934 13.5 2.99997V4.49997V5.24997V5.99997H12H8.25C3.69375 5.99997 0 9.69372 0 14.25C0 19.5609 3.82031 21.9328 4.69687 22.4109C4.81406 22.4765 4.94531 22.5 5.07656 22.5C5.5875 22.5 6 22.0828 6 21.5765C6 21.225 5.79844 20.9015 5.54062 20.6625C5.1 20.2453 4.5 19.425 4.5 18C4.5 15.5156 6.51562 13.5 9 13.5H12H13.5V14.25Z" fill="black"/>
</svg>
