<svg width="28" height="24" viewBox="0 0 28 24" fill="none" xmlns="http://www.w3.org/2000/svg">
<g clip-path="url(#clip0_2_908)">
<path d="M15.5818 3.12656L9.18804 8.8125C9.0521 8.93437 8.87397 9 8.69116 9H4.70679C4.08335 9 3.58179 9.50156 3.58179 10.125V13.875C3.58179 14.4984 4.08335 15 4.70679 15H8.69116C8.87397 15 9.0521 15.0656 9.18804 15.1875L15.5818 20.8734V3.12656ZM14.7568 1.85156C15.0146 1.62656 15.3427 1.5 15.6849 1.5C16.4584 1.5 17.0818 2.12344 17.0818 2.89687V21.1031C17.0818 21.8766 16.4584 22.5 15.6849 22.5C15.3427 22.5 15.0146 22.3734 14.7568 22.1484L8.40522 16.5H4.70679C3.25835 16.5 2.08179 15.3234 2.08179 13.875V10.125C2.08179 8.67656 3.25835 7.5 4.70679 7.5H8.40522L14.7568 1.85156ZM20.2318 8.55C20.4802 8.21719 20.949 8.15156 21.2818 8.4C22.374 9.22031 23.0818 10.5281 23.0818 12C23.0818 13.4719 22.374 14.7797 21.2818 15.6C20.949 15.8484 20.4802 15.7828 20.2318 15.45C19.9834 15.1172 20.049 14.6484 20.3818 14.4C21.113 13.8516 21.5818 12.9797 21.5818 12C21.5818 11.0203 21.113 10.1484 20.3818 9.6C20.049 9.35156 19.9834 8.88281 20.2318 8.55ZM24.3099 5.05781C26.3068 6.70781 27.5818 9.20625 27.5818 12C27.5818 14.7937 26.3068 17.2922 24.3099 18.9422C23.9912 19.2047 23.5177 19.1625 23.2552 18.8438C22.9927 18.525 23.0349 18.0516 23.3537 17.7891C25.0224 16.4109 26.0818 14.3297 26.0818 12C26.0818 9.67031 25.0224 7.58906 23.3537 6.21563C23.0349 5.95313 22.988 5.47969 23.2552 5.16094C23.5224 4.84219 23.9912 4.79531 24.3099 5.0625V5.05781Z" fill="black"/>
</g>
<defs>
<clipPath id="clip0_2_908">
<rect width="27" height="24" fill="white" transform="translate(0.581787)"/>
</clipPath>
</defs>
</svg>
