<svg width="27" height="24" viewBox="0 0 27 24" fill="none" xmlns="http://www.w3.org/2000/svg">
<g clip-path="url(#clip0_2_847)">
<path d="M14.8547 0.84375C14.6062 0.328125 14.0812 0 13.5047 0C12.9281 0 12.4078 0.328125 12.1547 0.84375L9.14061 7.04531L2.40936 8.03906C1.84686 8.12344 1.37811 8.51719 1.20467 9.05625C1.03123 9.59531 1.17186 10.1906 1.57498 10.5891L6.45936 15.4219L5.30623 22.2516C5.21248 22.8141 5.44686 23.3859 5.91092 23.7188C6.37498 24.0516 6.98905 24.0938 7.4953 23.8266L13.5094 20.6156L19.5234 23.8266C20.0297 24.0938 20.6437 24.0562 21.1078 23.7188C21.5719 23.3813 21.8062 22.8141 21.7125 22.2516L20.5547 15.4219L25.439 10.5891C25.8422 10.1906 25.9875 9.59531 25.8094 9.05625C25.6312 8.51719 25.1672 8.12344 24.6047 8.03906L17.8687 7.04531L14.8547 0.84375Z" fill="black"/>
</g>
<defs>
<clipPath id="clip0_2_847">
<rect width="27" height="24" fill="white"/>
</clipPath>
</defs>
</svg>
