<svg width="27" height="24" viewBox="0 0 27 24" fill="none" xmlns="http://www.w3.org/2000/svg">
<path d="M10.6172 7.9125L13.4953 1.98281L16.3734 7.9125C16.5891 8.35781 17.0109 8.66719 17.5031 8.74219L23.9437 9.69375L19.2656 14.325C18.9187 14.6672 18.7594 15.1594 18.8437 15.6422L19.9453 22.1813L14.2031 19.1109C13.7625 18.8766 13.2328 18.8766 12.7875 19.1109L7.04062 22.1813L8.14218 15.6422C8.22187 15.1594 8.06718 14.6719 7.72031 14.325L3.04687 9.69375L9.48749 8.74219C9.97968 8.67188 10.4016 8.35781 10.6172 7.9125ZM19.9172 23.8641C20.2969 24.0656 20.7562 24.0375 21.1031 23.7844C21.45 23.5312 21.6281 23.1047 21.5578 22.6828L20.325 15.3937L25.5375 10.2281C25.8422 9.92812 25.9453 9.48281 25.8141 9.07969C25.6828 8.67656 25.3312 8.38125 24.9094 8.31562L17.7234 7.25625L14.5078 0.632812C14.3203 0.24375 13.9266 0 13.4953 0C13.0641 0 12.6703 0.24375 12.4828 0.632812L9.26718 7.25625L2.08593 8.32031C1.66406 8.38125 1.3125 8.67656 1.18125 9.08438C1.05 9.49219 1.15781 9.93281 1.45781 10.2328L6.66562 15.3937L5.4375 22.6828C5.36718 23.1047 5.54062 23.5312 5.89218 23.7844C6.24375 24.0375 6.70312 24.0656 7.07812 23.8641L13.5 20.4328L19.9219 23.8641H19.9172Z" fill="black"/>
</svg>
