<svg width="21" height="24" viewBox="0 0 21 24" fill="none" xmlns="http://www.w3.org/2000/svg">
<path d="M3 3C2.17031 3 1.5 3.67031 1.5 4.5V19.5C1.5 20.3297 2.17031 21 3 21H12.75V16.5C12.75 15.2578 13.7578 14.25 15 14.25H19.5V4.5C19.5 3.67031 18.8297 3 18 3H3ZM14.25 20.3766L18.8766 15.75H15C14.5875 15.75 14.25 16.0875 14.25 16.5V20.3766ZM0 4.5C0 2.84531 1.34531 1.5 3 1.5H18C19.6547 1.5 21 2.84531 21 4.5V14.5078C21 15.3047 20.6859 16.0687 20.1234 16.6312L15.1266 21.6234C14.5641 22.1859 13.8 22.5 13.0031 22.5H3C1.34531 22.5 0 21.1547 0 19.5V4.5Z" fill="black"/>
</svg>
