<svg width="30" height="24" viewBox="0 0 30 24" fill="none" xmlns="http://www.w3.org/2000/svg">
<g clip-path="url(#clip0_2_855)">
<path d="M14.2306 3.10312L2.205 7.5L5.63294 8.75156C6.11007 8.42813 6.6289 8.16094 7.18015 7.95L14.5641 5.14688C14.9486 5.00156 15.3748 5.19844 15.5184 5.5875C15.662 5.97656 15.4674 6.40781 15.0829 6.55313L7.69897 9.35625C7.62949 9.37969 7.56463 9.40781 7.49978 9.43594L14.2306 11.8969C14.4205 11.9672 14.6197 12 14.8235 12C15.0274 12 15.2265 11.9625 15.4165 11.8969L27.4421 7.5L15.4165 3.10312C15.2265 3.03281 15.0274 3 14.8235 3C14.6197 3 14.4205 3.0375 14.2306 3.10312ZM13.7257 13.3078L5.87846 10.4391C4.60456 11.5313 3.80316 13.1203 3.71515 14.8547C3.98846 15.4734 4.18765 16.1438 4.33588 16.8C4.63235 18.0938 4.83154 19.8891 4.43316 21.8953C4.39147 22.0969 4.27566 22.2703 4.10426 22.3828C3.93287 22.4953 3.72441 22.5281 3.52985 22.4766L0.565147 21.7266C0.324265 21.6656 0.129706 21.4875 0.0463235 21.2484C-0.0370588 21.0094 0.00463235 20.7469 0.152868 20.55C0.55125 20.0016 0.894044 19.3969 1.19515 18.7875C1.72324 17.7094 2.22353 16.3313 2.22353 15C2.22353 14.9719 2.22353 14.9438 2.22816 14.9156C2.29301 12.9938 3.06199 11.2078 4.31735 9.86719L0.731912 8.55938C0.291838 8.39531 0 7.97344 0 7.5C0 7.02656 0.291838 6.60469 0.731912 6.44063L13.7257 1.69219C14.0777 1.56562 14.4483 1.5 14.8235 1.5C15.1988 1.5 15.5693 1.56562 15.9214 1.69219L28.9151 6.44063C29.3552 6.6 29.6471 7.02656 29.6471 7.5C29.6471 7.97344 29.3552 8.39531 28.9151 8.55938L15.9214 13.3078C15.5693 13.4344 15.1988 13.5 14.8235 13.5C14.4483 13.5 14.0777 13.4344 13.7257 13.3078ZM8.07419 12.8391L7.43029 19.0453C7.46272 19.0828 7.51368 19.1438 7.60169 19.2188C7.87963 19.4625 8.36603 19.7578 9.07941 20.0391C10.4876 20.5969 12.5212 21 14.8235 21C17.1258 21 19.1594 20.5969 20.5723 20.0344C21.2857 19.7531 21.7674 19.4578 22.05 19.2141C22.138 19.1391 22.189 19.0828 22.2214 19.0406L21.5729 12.8344L23.0089 12.3094L23.7176 19.125C23.7176 20.7797 19.7338 22.5 14.8235 22.5C9.91324 22.5 5.92941 20.7797 5.92941 19.125L6.63816 12.3094L8.07419 12.8344V12.8391ZM22.2585 18.9844C22.2599 18.9834 22.261 18.982 22.2617 18.9804C22.2625 18.9788 22.2627 18.9771 22.2625 18.9753C22.2623 18.9736 22.2615 18.972 22.2604 18.9706C22.2593 18.9693 22.2579 18.9682 22.2562 18.9677C22.2546 18.9671 22.2528 18.9671 22.2511 18.9675C22.2495 18.9679 22.2479 18.9688 22.2467 18.97C22.2455 18.9713 22.2446 18.9728 22.2443 18.9745C22.2439 18.9762 22.244 18.978 22.2446 18.9797C22.2431 18.9807 22.242 18.982 22.2413 18.9836C22.2406 18.9852 22.2403 18.987 22.2405 18.9887C22.2408 18.9905 22.2415 18.9921 22.2426 18.9935C22.2437 18.9948 22.2451 18.9958 22.2468 18.9964C22.2484 18.9969 22.2502 18.997 22.2519 18.9966C22.2536 18.9962 22.2551 18.9953 22.2563 18.9941C22.2575 18.9928 22.2584 18.9912 22.2588 18.9895C22.2591 18.9878 22.259 18.986 22.2585 18.9844ZM7.3886 18.9844C7.3886 18.9856 7.38909 18.9868 7.38996 18.9877C7.39083 18.9886 7.39201 18.9891 7.39324 18.9891C7.39446 18.9891 7.39564 18.9886 7.39651 18.9877C7.39738 18.9868 7.39787 18.9856 7.39787 18.9844C7.39787 18.9831 7.39738 18.9819 7.39651 18.9811C7.39564 18.9802 7.39446 18.9797 7.39324 18.9797C7.39201 18.9797 7.39083 18.9802 7.38996 18.9811C7.38909 18.9819 7.3886 18.9831 7.3886 18.9844ZM3.10368 20.8219C3.21949 19.8516 3.18243 18.9469 3.08051 18.1641C2.90449 18.6328 2.70993 19.0688 2.52 19.4578C2.34397 19.8141 2.15404 20.1703 1.94096 20.5266L3.10368 20.8219Z" fill="black"/>
</g>
<defs>
<clipPath id="clip0_2_855">
<rect width="29.6471" height="24" fill="white"/>
</clipPath>
</defs>
</svg>
