<svg width="31" height="24" viewBox="0 0 31 24" fill="none" xmlns="http://www.w3.org/2000/svg">
<g clip-path="url(#clip0_2_857)">
<path d="M26.2044 1.5H5.15721C4.32565 1.5 3.65384 2.17031 3.65384 3V10.7578C3.09477 10.9547 2.58268 11.2594 2.15047 11.6484V3C2.15047 1.34531 3.4988 0 5.15721 0H26.2044C27.8628 0 29.2111 1.34531 29.2111 3V11.6437C28.7789 11.2547 28.2668 10.95 27.7078 10.7531V3C27.7078 2.17031 27.0359 1.5 26.2044 1.5ZM5.15721 16.5C5.55593 16.5 5.93831 16.342 6.22025 16.0607C6.50219 15.7794 6.66058 15.3978 6.66058 15C6.66058 14.6022 6.50219 14.2206 6.22025 13.9393C5.93831 13.658 5.55593 13.5 5.15721 13.5C4.75849 13.5 4.3761 13.658 4.09416 13.9393C3.81223 14.2206 3.65384 14.6022 3.65384 15C3.65384 15.3978 3.81223 15.7794 4.09416 16.0607C4.3761 16.342 4.75849 16.5 5.15721 16.5ZM5.15721 12C5.95464 12 6.71942 12.3161 7.28329 12.8787C7.84717 13.4413 8.16395 14.2044 8.16395 15C8.16395 15.7956 7.84717 16.5587 7.28329 17.1213C6.71942 17.6839 5.95464 18 5.15721 18C4.35977 18 3.59499 17.6839 3.03112 17.1213C2.46725 16.5587 2.15047 15.7956 2.15047 15C2.15047 14.2044 2.46725 13.4413 3.03112 12.8787C3.59499 12.3161 4.35977 12 5.15721 12ZM15.6808 16.5C16.0795 16.5 16.4619 16.342 16.7438 16.0607C17.0258 15.7794 17.1842 15.3978 17.1842 15C17.1842 14.6022 17.0258 14.2206 16.7438 13.9393C16.4619 13.658 16.0795 13.5 15.6808 13.5C15.2821 13.5 14.8997 13.658 14.6178 13.9393C14.3358 14.2206 14.1774 14.6022 14.1774 15C14.1774 15.3978 14.3358 15.7794 14.6178 16.0607C14.8997 16.342 15.2821 16.5 15.6808 16.5ZM15.6808 12C16.4782 12 17.243 12.3161 17.8069 12.8787C18.3708 13.4413 18.6875 14.2044 18.6875 15C18.6875 15.7956 18.3708 16.5587 17.8069 17.1213C17.243 17.6839 16.4782 18 15.6808 18C14.8834 18 14.1186 17.6839 13.5547 17.1213C12.9908 16.5587 12.6741 15.7956 12.6741 15C12.6741 14.2044 12.9908 13.4413 13.5547 12.8787C14.1186 12.3161 14.8834 12 15.6808 12ZM27.7078 15C27.7078 14.6022 27.5494 14.2206 27.2674 13.9393C26.9855 13.658 26.6031 13.5 26.2044 13.5C25.8057 13.5 25.4233 13.658 25.1414 13.9393C24.8594 14.2206 24.701 14.6022 24.701 15C24.701 15.3978 24.8594 15.7794 25.1414 16.0607C25.4233 16.342 25.8057 16.5 26.2044 16.5C26.6031 16.5 26.9855 16.342 27.2674 16.0607C27.5494 15.7794 27.7078 15.3978 27.7078 15ZM23.1977 15C23.1977 14.2044 23.5144 13.4413 24.0783 12.8787C24.6422 12.3161 25.407 12 26.2044 12C27.0018 12 27.7666 12.3161 28.3305 12.8787C28.8944 13.4413 29.2111 14.2044 29.2111 15C29.2111 15.7956 28.8944 16.5587 28.3305 17.1213C27.7666 17.6839 27.0018 18 26.2044 18C25.407 18 24.6422 17.6839 24.0783 17.1213C23.5144 16.5587 23.1977 15.7956 23.1977 15ZM2.15047 22.5V23.25C2.15047 23.6625 1.81221 24 1.39878 24C0.985353 24 0.647095 23.6625 0.647095 23.25V22.5C0.647095 20.8453 1.99543 19.5 3.65384 19.5H6.66058C8.31898 19.5 9.66732 20.8453 9.66732 22.5V23.25C9.66732 23.6625 9.32906 24 8.91563 24C8.50221 24 8.16395 23.6625 8.16395 23.25V22.5C8.16395 21.6703 7.49213 21 6.66058 21H3.65384C2.82228 21 2.15047 21.6703 2.15047 22.5ZM14.1774 21C13.3459 21 12.6741 21.6703 12.6741 22.5V23.25C12.6741 23.6625 12.3358 24 11.9224 24C11.5089 24 11.1707 23.6625 11.1707 23.25V22.5C11.1707 20.8453 12.519 19.5 14.1774 19.5H17.1842C18.8426 19.5 20.1909 20.8453 20.1909 22.5V23.25C20.1909 23.6625 19.8527 24 19.4392 24C19.0258 24 18.6875 23.6625 18.6875 23.25V22.5C18.6875 21.6703 18.0157 21 17.1842 21H14.1774ZM23.1977 22.5V23.25C23.1977 23.6625 22.8594 24 22.446 24C22.0325 24 21.6943 23.6625 21.6943 23.25V22.5C21.6943 20.8453 23.0426 19.5 24.701 19.5H27.7078C29.3662 19.5 30.7145 20.8453 30.7145 22.5V23.25C30.7145 23.6625 30.3763 24 29.9628 24C29.5494 24 29.2111 23.6625 29.2111 23.25V22.5C29.2111 21.6703 28.5393 21 27.7078 21H24.701C23.8695 21 23.1977 21.6703 23.1977 22.5Z" fill="black"/>
</g>
<defs>
<clipPath id="clip0_2_857">
<rect width="30.0674" height="24" fill="white" transform="translate(0.647095)"/>
</clipPath>
</defs>
</svg>
