<svg width="30" height="24" viewBox="0 0 30 24" fill="none" xmlns="http://www.w3.org/2000/svg">
<g clip-path="url(#clip0_2_823)">
<path d="M27 1.5H10.5C9.67031 1.5 9 2.17031 9 3V4.6875C8.52188 4.56563 8.01562 4.5 7.5 4.5V3C7.5 1.34531 8.84531 0 10.5 0H27C28.6547 0 30 1.34531 30 3V16.5C30 18.1547 28.6547 19.5 27 19.5H26.25H18.75H18H15.7875C15.5391 18.9656 15.2344 18.4594 14.8734 18H18V15.75C18 14.5078 19.0078 13.5 20.25 13.5H24.75C25.9922 13.5 27 14.5078 27 15.75V18C27.8297 18 28.5 17.3297 28.5 16.5V3C28.5 2.17031 27.8297 1.5 27 1.5ZM25.5 18V15.75C25.5 15.3375 25.1625 15 24.75 15H20.25C19.8375 15 19.5 15.3375 19.5 15.75V18H25.5ZM10.5 10.5C10.5 9.70435 10.1839 8.94129 9.62132 8.37868C9.05871 7.81607 8.29565 7.5 7.5 7.5C6.70435 7.5 5.94129 7.81607 5.37868 8.37868C4.81607 8.94129 4.5 9.70435 4.5 10.5C4.5 11.2956 4.81607 12.0587 5.37868 12.6213C5.94129 13.1839 6.70435 13.5 7.5 13.5C8.29565 13.5 9.05871 13.1839 9.62132 12.6213C10.1839 12.0587 10.5 11.2956 10.5 10.5ZM3 10.5C3 9.30653 3.47411 8.16193 4.31802 7.31802C5.16193 6.47411 6.30653 6 7.5 6C8.69347 6 9.83807 6.47411 10.682 7.31802C11.5259 8.16193 12 9.30653 12 10.5C12 11.6935 11.5259 12.8381 10.682 13.682C9.83807 14.5259 8.69347 15 7.5 15C6.30653 15 5.16193 14.5259 4.31802 13.682C3.47411 12.8381 3 11.6935 3 10.5ZM1.50469 22.5H13.4953C13.3641 19.9922 11.2922 18 8.75156 18H6.24844C3.70781 18 1.63594 19.9922 1.50469 22.5ZM0 22.7484C0 19.2984 2.79844 16.5 6.24844 16.5H8.74688C12.2016 16.5 15 19.2984 15 22.7484C15 23.4375 14.4422 24 13.7484 24H1.25156C0.557813 24 0 23.4422 0 22.7484Z" fill="black"/>
</g>
<defs>
<clipPath id="clip0_2_823">
<rect width="30" height="24" fill="white"/>
</clipPath>
</defs>
</svg>
