<svg width="31" height="24" viewBox="0 0 31 24" fill="none" xmlns="http://www.w3.org/2000/svg">
<g clip-path="url(#clip0_2_916)">
<path d="M27.5818 1.5H11.0818C10.2521 1.5 9.58179 2.17031 9.58179 3V4.6875C9.10366 4.56563 8.59741 4.5 8.08179 4.5V3C8.08179 1.34531 9.4271 0 11.0818 0H27.5818C29.2365 0 30.5818 1.34531 30.5818 3V16.5C30.5818 18.1547 29.2365 19.5 27.5818 19.5H26.8318H19.3318H18.5818H16.3693C16.1208 18.9656 15.8162 18.4594 15.4552 18H18.5818V15.75C18.5818 14.5078 19.5896 13.5 20.8318 13.5H25.3318C26.574 13.5 27.5818 14.5078 27.5818 15.75V18C28.4115 18 29.0818 17.3297 29.0818 16.5V3C29.0818 2.17031 28.4115 1.5 27.5818 1.5ZM26.0818 18V15.75C26.0818 15.3375 25.7443 15 25.3318 15H20.8318C20.4193 15 20.0818 15.3375 20.0818 15.75V18H26.0818ZM11.0818 10.5C11.0818 9.70435 10.7657 8.94129 10.2031 8.37868C9.6405 7.81607 8.87744 7.5 8.08179 7.5C7.28614 7.5 6.52308 7.81607 5.96047 8.37868C5.39786 8.94129 5.08179 9.70435 5.08179 10.5C5.08179 11.2956 5.39786 12.0587 5.96047 12.6213C6.52308 13.1839 7.28614 13.5 8.08179 13.5C8.87744 13.5 9.6405 13.1839 10.2031 12.6213C10.7657 12.0587 11.0818 11.2956 11.0818 10.5ZM3.58179 10.5C3.58179 9.30653 4.05589 8.16193 4.89981 7.31802C5.74372 6.47411 6.88831 6 8.08179 6C9.27526 6 10.4199 6.47411 11.2638 7.31802C12.1077 8.16193 12.5818 9.30653 12.5818 10.5C12.5818 11.6935 12.1077 12.8381 11.2638 13.682C10.4199 14.5259 9.27526 15 8.08179 15C6.88831 15 5.74372 14.5259 4.89981 13.682C4.05589 12.8381 3.58179 11.6935 3.58179 10.5ZM2.08647 22.5H14.0771C13.9458 19.9922 11.874 18 9.33335 18H6.83022C4.2896 18 2.21772 19.9922 2.08647 22.5ZM0.581787 22.7484C0.581787 19.2984 3.38022 16.5 6.83022 16.5H9.32866C12.7833 16.5 15.5818 19.2984 15.5818 22.7484C15.5818 23.4375 15.024 24 14.3302 24H1.83335C1.1396 24 0.581787 23.4422 0.581787 22.7484Z" fill="black"/>
</g>
<defs>
<clipPath id="clip0_2_916">
<rect width="30" height="24" fill="white" transform="translate(0.581787)"/>
</clipPath>
</defs>
</svg>
