<svg width="25" height="24" viewBox="0 0 25 24" fill="none" xmlns="http://www.w3.org/2000/svg">
<g clip-path="url(#clip0_2_900)">
<path d="M9.58179 19.5C9.58179 18.6703 8.91147 18 8.08179 18H3.58179C2.7521 18 2.08179 17.3297 2.08179 16.5V3C2.08179 2.17031 2.7521 1.5 3.58179 1.5H21.5818C22.4115 1.5 23.0818 2.17031 23.0818 3V16.5C23.0818 17.3297 22.4115 18 21.5818 18H15.0802C14.7568 18 14.438 18.1031 14.1802 18.3L9.58179 21.75V19.5ZM3.58179 0C1.9271 0 0.581787 1.34531 0.581787 3V16.5C0.581787 18.1547 1.9271 19.5 3.58179 19.5H6.58179H8.08179V21V23.25C8.08179 23.5359 8.24116 23.7937 8.49429 23.9203C8.74741 24.0469 9.0521 24.0187 9.28179 23.85L15.0802 19.5H21.5818C23.2365 19.5 24.5818 18.1547 24.5818 16.5V3C24.5818 1.34531 23.2365 0 21.5818 0H3.58179ZM9.58179 6C9.16929 6 8.83179 6.3375 8.83179 6.75C8.83179 7.1625 9.16929 7.5 9.58179 7.5H11.8318V12.75C11.8318 13.1625 12.1693 13.5 12.5818 13.5C12.9943 13.5 13.3318 13.1625 13.3318 12.75V7.5H15.5818C15.9943 7.5 16.3318 7.1625 16.3318 6.75C16.3318 6.3375 15.9943 6 15.5818 6H12.5818H9.58179Z" fill="black"/>
</g>
<defs>
<clipPath id="clip0_2_900">
<rect width="24" height="24" fill="white" transform="translate(0.581787)"/>
</clipPath>
</defs>
</svg>
