<svg width="21" height="24" viewBox="0 0 21 24" fill="none" xmlns="http://www.w3.org/2000/svg">
<g clip-path="url(#clip0_2_892)">
<path d="M8.32969 1.5H12.6656C12.9234 1.5 13.1625 1.63125 13.3031 1.85156L14.0203 3H6.97969L7.69687 1.85156C7.83281 1.63125 8.07656 1.5 8.33438 1.5H8.32969ZM15.7922 3L14.5781 1.05938C14.1656 0.398438 13.4437 0 12.6703 0H8.32969C7.55625 0 6.83437 0.398438 6.42188 1.05938L5.20781 3H3.00469H1.5H0.75C0.3375 3 0 3.3375 0 3.75C0 4.1625 0.3375 4.5 0.75 4.5H1.60781L2.80312 21.2156C2.91094 22.7859 4.21875 24 5.79375 24H15.2062C16.7812 24 18.0844 22.7859 18.1969 21.2156L19.3922 4.5H20.25C20.6625 4.5 21 4.1625 21 3.75C21 3.3375 20.6625 3 20.25 3H19.5H17.9953H15.7922ZM17.8922 4.5L16.7016 21.1078C16.6453 21.8906 15.9937 22.5 15.2062 22.5H5.79375C5.00625 22.5 4.35469 21.8906 4.29844 21.1078L3.1125 4.5H17.8875H17.8922Z" fill="black"/>
</g>
<defs>
<clipPath id="clip0_2_892">
<rect width="21" height="24" fill="white"/>
</clipPath>
</defs>
</svg>
