<svg width="31" height="24" viewBox="0 0 31 24" fill="none" xmlns="http://www.w3.org/2000/svg">
<g clip-path="url(#clip0_2_775)">
<path d="M5.43426 3.75C5.43426 3.15326 5.67132 2.58097 6.09327 2.15901C6.51523 1.73705 7.08753 1.5 7.68426 1.5C8.281 1.5 8.8533 1.73705 9.27526 2.15901C9.69721 2.58097 9.93426 3.15326 9.93426 3.75C9.93426 4.34674 9.69721 4.91903 9.27526 5.34099C8.8533 5.76295 8.281 6 7.68426 6C7.08753 6 6.51523 5.76295 6.09327 5.34099C5.67132 4.91903 5.43426 4.34674 5.43426 3.75ZM11.4343 3.75C11.4343 2.75544 11.0392 1.80161 10.3359 1.09835C9.63265 0.395088 8.67883 0 7.68426 0C6.6897 0 5.73588 0.395088 5.03261 1.09835C4.32935 1.80161 3.93426 2.75544 3.93426 3.75C3.93426 4.74456 4.32935 5.69839 5.03261 6.40165C5.73588 7.10491 6.6897 7.5 7.68426 7.5C8.67883 7.5 9.63265 7.10491 10.3359 6.40165C11.0392 5.69839 11.4343 4.74456 11.4343 3.75ZM15.9343 7.5C16.7299 7.5 17.493 7.81607 18.0556 8.37868C18.6182 8.94129 18.9343 9.70435 18.9343 10.5C18.9343 11.2956 18.6182 12.0587 18.0556 12.6213C17.493 13.1839 16.7299 13.5 15.9343 13.5C15.1386 13.5 14.3756 13.1839 13.8129 12.6213C13.2503 12.0587 12.9343 11.2956 12.9343 10.5C12.9343 9.70435 13.2503 8.94129 13.8129 8.37868C14.3756 7.81607 15.1386 7.5 15.9343 7.5ZM15.9343 15C16.5252 15 17.1104 14.8836 17.6563 14.6575C18.2023 14.4313 18.6984 14.0998 19.1162 13.682C19.5341 13.2641 19.8656 12.768 20.0917 12.2221C20.3179 11.6761 20.4343 11.0909 20.4343 10.5C20.4343 9.90905 20.3179 9.32389 20.0917 8.77792C19.8656 8.23196 19.5341 7.73588 19.1162 7.31802C18.6984 6.90016 18.2023 6.56869 17.6563 6.34254C17.1104 6.1164 16.5252 6 15.9343 6C15.3433 6 14.7582 6.1164 14.2122 6.34254C13.6662 6.56869 13.1701 6.90016 12.7523 7.31802C12.3344 7.73588 12.003 8.23196 11.7768 8.77792C11.5507 9.32389 11.4343 9.90905 11.4343 10.5C11.4343 11.0909 11.5507 11.6761 11.7768 12.2221C12.003 12.768 12.3344 13.2641 12.7523 13.682C13.1701 14.0998 13.6662 14.4313 14.2122 14.6575C14.7582 14.8836 15.3433 15 15.9343 15ZM13.1827 18H18.6858C21.2265 18 23.2983 19.9922 23.4296 22.5H8.43895C8.5702 19.9922 10.6421 18 13.1827 18ZM13.1827 16.5C9.7327 16.5 6.93426 19.2984 6.93426 22.7484C6.93426 23.4375 7.49208 24 8.18583 24H23.6827C24.3718 24 24.9343 23.4422 24.9343 22.7484C24.9343 19.2984 22.1358 16.5 18.6858 16.5H13.1827ZM24.9343 1.5C25.531 1.5 26.1033 1.73705 26.5253 2.15901C26.9472 2.58097 27.1843 3.15326 27.1843 3.75C27.1843 4.34674 26.9472 4.91903 26.5253 5.34099C26.1033 5.76295 25.531 6 24.9343 6C24.3375 6 23.7652 5.76295 23.3433 5.34099C22.9213 4.91903 22.6843 4.34674 22.6843 3.75C22.6843 3.15326 22.9213 2.58097 23.3433 2.15901C23.7652 1.73705 24.3375 1.5 24.9343 1.5ZM24.9343 7.5C25.9288 7.5 26.8827 7.10491 27.5859 6.40165C28.2892 5.69839 28.6843 4.74456 28.6843 3.75C28.6843 2.75544 28.2892 1.80161 27.5859 1.09835C26.8827 0.395088 25.9288 0 24.9343 0C23.9397 0 22.9859 0.395088 22.2826 1.09835C21.5794 1.80161 21.1843 2.75544 21.1843 3.75C21.1843 4.74456 21.5794 5.69839 22.2826 6.40165C22.9859 7.10491 23.9397 7.5 24.9343 7.5ZM25.6843 10.5C27.7561 10.5 29.4343 12.1781 29.4343 14.25C29.4343 14.6625 29.7718 15 30.1843 15C30.5968 15 30.9343 14.6625 30.9343 14.25C30.9343 11.3484 28.5858 9 25.6843 9H21.7468C21.8686 9.47812 21.9343 9.98438 21.9343 10.5H25.6843ZM9.93426 10.5C9.93426 9.98438 9.99989 9.47812 10.1218 9H6.18426C3.2827 9 0.934265 11.3484 0.934265 14.25C0.934265 14.6625 1.27177 15 1.68427 15C2.09677 15 2.43427 14.6625 2.43427 14.25C2.43427 12.1781 4.11239 10.5 6.18426 10.5H9.93426Z" fill="black"/>
</g>
<defs>
<clipPath id="clip0_2_775">
<rect width="30" height="24" fill="white" transform="translate(0.934265)"/>
</clipPath>
</defs>
</svg>
