<svg width="30" height="24" viewBox="0 0 30 24" fill="none" xmlns="http://www.w3.org/2000/svg">
<g clip-path="url(#clip0_2_819)">
<path d="M6 6C6 5.40905 6.1164 4.82389 6.34254 4.27792C6.56869 3.73196 6.90016 3.23588 7.31802 2.81802C7.73588 2.40016 8.23196 2.06869 8.77792 1.84254C9.32389 1.6164 9.90905 1.5 10.5 1.5C11.0909 1.5 11.6761 1.6164 12.2221 1.84254C12.768 2.06869 13.2641 2.40016 13.682 2.81802C14.0998 3.23588 14.4313 3.73196 14.6575 4.27792C14.8836 4.82389 15 5.40905 15 6C15 6.59095 14.8836 7.17611 14.6575 7.72208C14.4313 8.26804 14.0998 8.76412 13.682 9.18198C13.2641 9.59984 12.768 9.93131 12.2221 10.1575C11.6761 10.3836 11.0909 10.5 10.5 10.5C9.90905 10.5 9.32389 10.3836 8.77792 10.1575C8.23196 9.93131 7.73588 9.59984 7.31802 9.18198C6.90016 8.76412 6.56869 8.26804 6.34254 7.72208C6.1164 7.17611 6 6.59095 6 6ZM12.6422 15.75C16.3922 15.75 19.4391 18.7641 19.5 22.5H1.5C1.55625 18.7641 4.60313 15.75 8.35781 15.75H12.6422ZM10.5 12C12.0913 12 13.6174 11.3679 14.7426 10.2426C15.8679 9.11742 16.5 7.5913 16.5 6C16.5 4.4087 15.8679 2.88258 14.7426 1.75736C13.6174 0.632141 12.0913 0 10.5 0C8.9087 0 7.38258 0.632141 6.25736 1.75736C5.13214 2.88258 4.5 4.4087 4.5 6C4.5 7.5913 5.13214 9.11742 6.25736 10.2426C7.38258 11.3679 8.9087 12 10.5 12ZM8.35781 14.25C3.74063 14.25 0 17.9906 0 22.6078C0 23.3766 0.623438 24 1.39219 24H19.6078C20.3766 24 21 23.3766 21 22.6078C21 17.9906 17.2594 14.25 12.6422 14.25H8.35781ZM28.5609 24C29.3578 24 30 23.3531 30 22.5609C30 18.3844 26.6156 15 22.4391 15H19.5609C19.3547 15 19.1484 15.0094 18.9422 15.0234C19.4719 15.4641 19.9547 15.9563 20.3812 16.5H22.4391C25.7672 16.5 28.4672 19.1812 28.5 22.5H22.5C22.5 22.5375 22.5 22.5703 22.5 22.6078C22.5 23.1141 22.3687 23.5875 22.1437 24H28.5609ZM20.25 12C23.1516 12 25.5 9.65156 25.5 6.75C25.5 3.84844 23.1516 1.5 20.25 1.5C19.0875 1.5 18.0141 1.87969 17.1422 2.51719C17.3859 2.97656 17.5781 3.46875 17.7234 3.97969C18.3891 3.37031 19.275 3 20.25 3C22.3219 3 24 4.67812 24 6.75C24 8.82187 22.3219 10.5 20.25 10.5C19.0688 10.5 18.0188 9.95625 17.3297 9.10312C17.1094 9.58594 16.8422 10.0359 16.5328 10.4578C17.4844 11.4094 18.7969 12 20.25 12Z" fill="black"/>
</g>
<defs>
<clipPath id="clip0_2_819">
<rect width="30" height="24" fill="white"/>
</clipPath>
</defs>
</svg>
