<svg width="31" height="24" viewBox="0 0 31 24" fill="none" xmlns="http://www.w3.org/2000/svg">
<g clip-path="url(#clip0_2_865)">
<path d="M11.2145 1.5C11.8054 1.5 12.3906 1.6164 12.9366 1.84254C13.4825 2.06869 13.9786 2.40016 14.3965 2.81802C14.8143 3.23588 15.1458 3.73196 15.3719 4.27792C15.5981 4.82389 15.7145 5.40905 15.7145 6C15.7145 6.59095 15.5981 7.17611 15.3719 7.72208C15.1458 8.26804 14.8143 8.76412 14.3965 9.18198C13.9786 9.59984 13.4825 9.93131 12.9366 10.1575C12.3906 10.3836 11.8054 10.5 11.2145 10.5C10.6235 10.5 10.0384 10.3836 9.4924 10.1575C8.94644 9.93131 8.45036 9.59984 8.0325 9.18198C7.61463 8.76412 7.28317 8.26804 7.05702 7.72208C6.83087 7.17611 6.71448 6.59095 6.71448 6C6.71448 5.40905 6.83087 4.82389 7.05702 4.27792C7.28317 3.73196 7.61463 3.23588 8.0325 2.81802C8.45036 2.40016 8.94644 2.06869 9.4924 1.84254C10.0384 1.6164 10.6235 1.5 11.2145 1.5ZM11.2145 12C12.8058 12 14.3319 11.3679 15.4571 10.2426C16.5823 9.11742 17.2145 7.5913 17.2145 6C17.2145 4.4087 16.5823 2.88258 15.4571 1.75736C14.3319 0.632141 12.8058 0 11.2145 0C9.62318 0 8.09705 0.632141 6.97184 1.75736C5.84662 2.88258 5.21448 4.4087 5.21448 6C5.21448 7.5913 5.84662 9.11742 6.97184 10.2426C8.09705 11.3679 9.62318 12 11.2145 12ZM9.07229 15.75H13.3567C17.1067 15.75 20.1535 18.7641 20.2145 22.5H2.21448C2.27073 18.7641 5.3176 15.75 9.07229 15.75ZM9.07229 14.25C4.4551 14.25 0.714478 17.9906 0.714478 22.6078C0.714478 23.3766 1.33792 24 2.10667 24H20.3223C21.091 24 21.7145 23.3766 21.7145 22.6078C21.7145 17.9906 17.9739 14.25 13.3567 14.25H9.07229ZM30.4942 8.77969C30.7848 8.48906 30.7848 8.01094 30.4942 7.72031C30.2035 7.42969 29.7254 7.42969 29.4348 7.72031L23.9645 13.1906L21.4942 10.7203C21.2035 10.4297 20.7254 10.4297 20.4348 10.7203C20.1442 11.0109 20.1442 11.4891 20.4348 11.7797L23.4348 14.7797C23.7254 15.0703 24.2035 15.0703 24.4942 14.7797L30.4942 8.77969Z" fill="black"/>
</g>
<defs>
<clipPath id="clip0_2_865">
<rect width="30" height="24" fill="white" transform="translate(0.714478)"/>
</clipPath>
</defs>
</svg>
