<svg width="31" height="24" viewBox="0 0 31 24" fill="none" xmlns="http://www.w3.org/2000/svg">
<g clip-path="url(#clip0_2_777)">
<path d="M7.68427 0C8.67883 0 9.63265 0.395088 10.3359 1.09835C11.0392 1.80161 11.4343 2.75544 11.4343 3.75C11.4343 4.74456 11.0392 5.69839 10.3359 6.40165C9.63265 7.10491 8.67883 7.5 7.68427 7.5C6.6897 7.5 5.73588 7.10491 5.03261 6.40165C4.32935 5.69839 3.93427 4.74456 3.93427 3.75C3.93427 2.75544 4.32935 1.80161 5.03261 1.09835C5.73588 0.395088 6.6897 0 7.68427 0ZM24.9343 0C25.9288 0 26.8827 0.395088 27.5859 1.09835C28.2892 1.80161 28.6843 2.75544 28.6843 3.75C28.6843 4.74456 28.2892 5.69839 27.5859 6.40165C26.8827 7.10491 25.9288 7.5 24.9343 7.5C23.9397 7.5 22.9859 7.10491 22.2826 6.40165C21.5794 5.69839 21.1843 4.74456 21.1843 3.75C21.1843 2.75544 21.5794 1.80161 22.2826 1.09835C22.9859 0.395088 23.9397 0 24.9343 0ZM0.934265 14.0016C0.934265 11.2406 3.17489 9 5.93583 9H7.93739C8.6827 9 9.39052 9.16406 10.028 9.45469C9.96708 9.79219 9.93895 10.1438 9.93895 10.5C9.93895 12.2906 10.7265 13.8984 11.9686 15C11.9593 15 11.9499 15 11.9358 15H1.9327C1.38427 15 0.934265 14.55 0.934265 14.0016ZM19.9327 15C19.9233 15 19.914 15 19.8999 15C21.1468 13.8984 21.9296 12.2906 21.9296 10.5C21.9296 10.1438 21.8968 9.79688 21.8405 9.45469C22.478 9.15938 23.1858 9 23.9311 9H25.9327C28.6936 9 30.9343 11.2406 30.9343 14.0016C30.9343 14.5547 30.4843 15 29.9358 15H19.9327ZM11.4343 10.5C11.4343 9.30653 11.9084 8.16193 12.7523 7.31802C13.5962 6.47411 14.7408 6 15.9343 6C17.1277 6 18.2723 6.47411 19.1162 7.31802C19.9602 8.16193 20.4343 9.30653 20.4343 10.5C20.4343 11.6935 19.9602 12.8381 19.1162 13.682C18.2723 14.5259 17.1277 15 15.9343 15C14.7408 15 13.5962 14.5259 12.7523 13.682C11.9084 12.8381 11.4343 11.6935 11.4343 10.5ZM6.93427 22.7484C6.93427 19.2984 9.7327 16.5 13.1827 16.5H18.6858C22.1358 16.5 24.9343 19.2984 24.9343 22.7484C24.9343 23.4375 24.3765 24 23.6827 24H8.18583C7.49677 24 6.93427 23.4422 6.93427 22.7484Z" fill="black"/>
</g>
<defs>
<clipPath id="clip0_2_777">
<rect width="30" height="24" fill="white" transform="translate(0.934265)"/>
</clipPath>
</defs>
</svg>
