<svg width="27" height="24" viewBox="0 0 27 24" fill="none" xmlns="http://www.w3.org/2000/svg">
<path d="M3 4.5C2.17031 4.5 1.5 5.17031 1.5 6V18C1.5 18.8297 2.17031 19.5 3 19.5H15C15.8297 19.5 16.5 18.8297 16.5 18V6C16.5 5.17031 15.8297 4.5 15 4.5H3ZM0 6C0 4.34531 1.34531 3 3 3H15C16.6547 3 18 4.34531 18 6V8.2125V15.7875V18C18 19.6547 16.6547 21 15 21H3C1.34531 21 0 19.6547 0 18V6ZM24.3469 19.2797L19.5 16.6125V14.9016L25.0687 17.9672C25.1109 17.9906 25.1578 18.0047 25.2094 18.0047C25.3687 18.0047 25.5 17.8734 25.5 17.7141V6.29062C25.5 6.13125 25.3687 6 25.2094 6C25.1625 6 25.1109 6.01406 25.0687 6.0375L19.5 9.09844V7.3875L24.3469 4.72031C24.6094 4.575 24.9094 4.5 25.2094 4.5C26.1984 4.5 27 5.30156 27 6.29062V17.7094C27 18.6984 26.1984 19.5 25.2094 19.5C24.9094 19.5 24.6094 19.425 24.3469 19.2797Z" fill="black"/>
</svg>
