<svg width="90" height="107" viewBox="0 0 90 107" fill="none" xmlns="http://www.w3.org/2000/svg">
<path fill-rule="evenodd" clip-rule="evenodd" d="M13.7417 19.5546C8.30637 21.011 5.08078 26.5978 6.53718 32.0332C7.99358 37.4686 13.5805 40.6942 19.0158 39.2378L52.7501 30.1987C48.706 19.4395 37.0749 13.3025 25.7406 16.3395L13.7417 19.5546ZM55.8311 29.3731C51.3222 16.9196 37.9484 9.78014 24.9186 13.2715L12.9197 16.4866C5.78989 18.397 1.55877 25.7255 3.46919 32.8553C5.3796 39.985 12.7081 44.2162 19.8379 42.3058L53.6773 33.2385L57.9846 49.3133C60.0333 56.9595 67.8926 61.497 75.5388 59.4482C83.1849 57.3995 87.7225 49.5402 85.6737 41.894L84.9639 39.2449C82.5231 30.1357 73.1599 24.7299 64.0507 27.1707L55.8311 29.3731ZM56.7453 32.4164L61.0526 48.4913C62.6473 54.443 68.765 57.975 74.7167 56.3803C80.6685 54.7855 84.2005 48.6678 82.6057 42.7161L81.8959 40.067C79.9091 32.6522 72.2876 28.2519 64.8728 30.2387L56.7453 32.4164Z" fill="#00D471"/>
<path fill-rule="evenodd" clip-rule="evenodd" d="M75.6416 87.4454C81.077 85.989 84.3026 80.4022 82.8462 74.9668C81.3898 69.5314 75.8029 66.3058 70.3675 67.7622L36.6333 76.8013C40.6774 87.5605 52.3085 93.6975 63.6427 90.6605L75.6416 87.4454ZM33.5522 77.6269C38.0612 90.0804 51.435 97.2199 64.4648 93.7285L76.4637 90.5134C83.5935 88.603 87.8246 81.2745 85.9142 74.1447C84.0038 67.0149 76.6752 62.7838 69.5455 64.6942L35.706 73.7615L31.3988 57.6867C29.35 50.0405 21.4907 45.503 13.8446 47.5518C6.19842 49.6005 1.66086 57.4598 3.70964 65.106L4.41946 67.7551C6.86027 76.8643 16.2234 82.2701 25.3326 79.8293L33.5522 77.6269ZM32.638 74.5836L28.3308 58.5087C26.736 52.557 20.6184 49.025 14.6666 50.6197C8.71489 52.2145 5.18287 58.3322 6.77763 64.2839L7.48746 66.933C9.47425 74.3478 17.0958 78.7481 24.5106 76.7613L32.638 74.5836Z" fill="#00D471"/>
</svg>
