<svg width="61" height="27" viewBox="0 0 61 27" fill="none" xmlns="http://www.w3.org/2000/svg">
<path fill-rule="evenodd" clip-rule="evenodd" d="M6.87567 1.16925C3.72571 1.16925 1.17215 3.71648 1.17215 6.85864V22.5117C1.17215 24.156 2.50848 25.489 4.15693 25.489C5.80538 25.489 7.14171 24.156 7.14171 22.5117V16.2087C7.14171 15.1599 7.38246 14.125 7.84552 13.1834C8.86943 11.1013 10.6937 9.8606 12.6676 9.47215L12.5762 6.67324C12.4759 3.60488 9.95329 1.16925 6.87567 1.16925ZM13.8362 9.34216L13.7477 6.63514C13.6268 2.93619 10.5858 0 6.87567 0C3.07835 0 0 3.07072 0 6.85864V22.5117C0 24.8018 1.86112 26.6583 4.15693 26.6583C6.45274 26.6583 8.31386 24.8018 8.31386 22.5117V16.2087C8.31386 15.3384 8.51364 14.4797 8.89787 13.6983C9.71407 12.0386 11.1432 11.0232 12.7065 10.6601L13.107 22.9145C13.1755 25.0108 14.8606 26.6958 16.962 26.7691C19.2229 26.8481 21.0987 25.0412 21.0987 22.7845V16.5986C21.0987 15.4431 20.8139 14.3052 20.2692 13.2854L20.1055 12.9789C18.7712 10.4804 16.2868 9.27473 13.8362 9.34216ZM13.8744 10.5108L14.2785 22.8764C14.327 24.358 15.5179 25.5488 17.003 25.6006C18.6009 25.6564 19.9266 24.3794 19.9266 22.7845V16.5986C19.9266 15.6348 19.689 14.6858 19.2347 13.8351L19.071 13.5287C17.9648 11.4573 15.9061 10.4568 13.8744 10.5108Z" fill="#00D471"/>
<path d="M32.7722 24.5565V18.185C32.7722 17.5988 32.6501 17.0926 32.4059 16.6663C32.1617 16.24 31.803 15.9127 31.3299 15.6843C30.8568 15.456 30.273 15.3418 29.5785 15.3418C28.9375 15.3418 28.3652 15.456 27.8615 15.6843C27.3655 15.9051 26.9725 16.2058 26.6825 16.5864C26.4001 16.9594 26.259 17.3743 26.259 17.831L24.8853 17.8196C24.8853 17.3552 24.9998 16.9061 25.2287 16.4722C25.4577 16.0383 25.782 15.6501 26.2017 15.3075C26.6214 14.965 27.1213 14.6947 27.7013 14.4968C28.2889 14.2913 28.9337 14.1885 29.6358 14.1885C30.521 14.1885 31.2994 14.3369 31.9709 14.6338C32.6501 14.9307 33.1805 15.376 33.562 15.9698C33.9436 16.5635 34.1344 17.3095 34.1344 18.2078V24.1796C34.1344 24.6059 34.1649 25.0474 34.2259 25.5042C34.2946 25.9609 34.39 26.3377 34.5121 26.6346V26.7716H33.0584C32.9668 26.4976 32.8943 26.155 32.8409 25.744C32.7951 25.3253 32.7722 24.9295 32.7722 24.5565ZM33.0927 19.578L33.1156 20.6285H30.4256C29.7235 20.6285 29.094 20.6932 28.5369 20.8226C27.9874 20.9444 27.5219 21.1271 27.1404 21.3707C26.7588 21.6067 26.465 21.8921 26.259 22.2271C26.0606 22.562 25.9613 22.9426 25.9613 23.3689C25.9613 23.8104 26.072 24.2139 26.2933 24.5793C26.5222 24.9447 26.8427 25.2378 27.2548 25.4585C27.6745 25.6717 28.1706 25.7782 28.7429 25.7782C29.506 25.7782 30.1776 25.6374 30.7576 25.3557C31.3452 25.0741 31.8297 24.7049 32.2113 24.2482C32.5929 23.7914 32.8485 23.2928 32.9782 22.7523L33.5735 23.5402C33.4743 23.9208 33.2911 24.3129 33.024 24.7163C32.7646 25.1122 32.425 25.4852 32.0053 25.8353C31.5855 26.1779 31.0895 26.4595 30.5172 26.6803C29.9525 26.8934 29.3114 27 28.5941 27C27.7852 27 27.0793 26.8478 26.4764 26.5433C25.8812 26.2388 25.4157 25.8239 25.0799 25.2987C24.7518 24.7658 24.5877 24.1644 24.5877 23.4945C24.5877 22.8856 24.7175 22.3413 24.9769 21.8617C25.2364 21.3745 25.6103 20.9634 26.0987 20.6285C26.5947 20.286 27.19 20.0271 27.8844 19.8521C28.5865 19.6694 29.3725 19.578 30.2424 19.578H33.0927Z" fill="#00D471"/>
<path d="M39.171 17.0545V26.7716H37.8088V14.4169H39.1137L39.171 17.0545ZM38.8619 19.8292L38.2552 19.4867C38.301 18.7559 38.4498 18.0708 38.7016 17.4313C38.9535 16.7919 39.2931 16.2286 39.7204 15.7414C40.1554 15.2542 40.6629 14.8736 41.2428 14.5996C41.8304 14.3255 42.4791 14.1885 43.1888 14.1885C43.8069 14.1885 44.3602 14.2722 44.8486 14.4397C45.337 14.6072 45.7529 14.8736 46.0963 15.239C46.4397 15.6044 46.6991 16.0725 46.8746 16.6435C47.0578 17.2144 47.1494 17.9109 47.1494 18.733V26.7716H45.7758V18.7216C45.7758 17.8691 45.6575 17.203 45.4209 16.7234C45.1843 16.2362 44.8486 15.8899 44.4136 15.6843C43.9786 15.4788 43.4635 15.376 42.8683 15.376C42.212 15.376 41.6358 15.5207 41.1398 15.8099C40.6514 16.0916 40.2393 16.4608 39.9035 16.9175C39.5754 17.3666 39.3236 17.85 39.1481 18.3677C38.9725 18.8777 38.8772 19.3649 38.8619 19.8292Z" fill="#00D471"/>
<path d="M49.9424 20.7884V20.4116C49.9424 19.5133 50.0721 18.6836 50.3316 17.9223C50.591 17.1611 50.9612 16.5026 51.4419 15.9469C51.9303 15.3912 52.5141 14.9612 53.1933 14.6567C53.8725 14.3446 54.6279 14.1885 55.4598 14.1885C56.2992 14.1885 57.0585 14.3446 57.7377 14.6567C58.4168 14.9612 59.0006 15.3912 59.489 15.9469C59.9774 16.5026 60.3513 17.1611 60.6108 17.9223C60.8703 18.6836 61 19.5133 61 20.4116V20.7884C61 21.6866 60.8703 22.5164 60.6108 23.2776C60.3513 24.0312 59.9774 24.6859 59.489 25.2416C59.0083 25.7973 58.4283 26.2312 57.7491 26.5433C57.0699 26.8478 56.3144 27 55.4826 27C54.6432 27 53.8839 26.8478 53.2047 26.5433C52.5256 26.2312 51.9418 25.7973 51.4534 25.2416C50.965 24.6859 50.591 24.0312 50.3316 23.2776C50.0721 22.5164 49.9424 21.6866 49.9424 20.7884ZM51.3046 20.4116V20.7884C51.3046 21.4659 51.3961 22.1091 51.5793 22.7181C51.7624 23.3195 52.0295 23.8561 52.3806 24.3281C52.7316 24.7924 53.1666 25.1578 53.6855 25.4243C54.2044 25.6907 54.8035 25.8239 55.4826 25.8239C56.1542 25.8239 56.7456 25.6907 57.2569 25.4243C57.7758 25.1578 58.2108 24.7924 58.5618 24.3281C58.9129 23.8561 59.1761 23.3195 59.3517 22.7181C59.5348 22.1091 59.6264 21.4659 59.6264 20.7884V20.4116C59.6264 19.7417 59.5348 19.106 59.3517 18.5047C59.1761 17.9033 58.9091 17.3666 58.5504 16.8947C58.1994 16.4227 57.7644 16.0497 57.2454 15.7757C56.7265 15.5016 56.1313 15.3646 55.4598 15.3646C54.7882 15.3646 54.193 15.5016 53.674 15.7757C53.1628 16.0497 52.7278 16.4227 52.3691 16.8947C52.0181 17.3666 51.751 17.9033 51.5678 18.5047C51.3923 19.106 51.3046 19.7417 51.3046 20.4116Z" fill="#00D471"/>
</svg>
